<?xml version="1.0" encoding="UTF-8" standalone="no"?>
<!-- Created with Inkscape (http://www.inkscape.org/) -->

<svg
   xmlns:dc="http://purl.org/dc/elements/1.1/"
   xmlns:cc="http://creativecommons.org/ns#"
   xmlns:rdf="http://www.w3.org/1999/02/22-rdf-syntax-ns#"
   xmlns:svg="http://www.w3.org/2000/svg"
   xmlns="http://www.w3.org/2000/svg"
   xmlns:sodipodi="http://sodipodi.sourceforge.net/DTD/sodipodi-0.dtd"
   xmlns:inkscape="http://www.inkscape.org/namespaces/inkscape"
   id="svg3047"
   version="1.1"
   inkscape:version="0.92.5 (2060ec1f9f, 2020-04-08)"
   width="400"
   height="256"
   xml:space="preserve"
   sodipodi:docname="lpc-title-text-2022.svg"><metadata
     id="metadata3053"><rdf:RDF><cc:Work
         rdf:about=""><dc:format>image/svg+xml</dc:format><dc:type
           rdf:resource="http://purl.org/dc/dcmitype/StillImage" /><dc:title></dc:title></cc:Work></rdf:RDF></metadata><defs
     id="defs3051"><clipPath
       clipPathUnits="userSpaceOnUse"
       id="clipPath3061"><path
         d="M 0,612 H 792 V 0 H 0 Z"
         id="path3063"
         inkscape:connector-curvature="0" /></clipPath><clipPath
       clipPathUnits="userSpaceOnUse"
       id="clipPath3077"><path
         d="m 457.886,465.695 c -11.204,-0.934 -11.094,-17.732 -11.594,-22.832 v 0 c -0.642,-6.613 15.497,-40.864 2.655,-77.538 v 0 c -11.644,-33.287 -18.424,-23.456 -18.053,-18.559 v 0 c 1.178,15.818 -1.027,35.602 -6.404,47.573 v 0 c -1.207,2.665 -2.974,2.103 -2.628,-2.137 v 0 c 0.556,-7.003 3.534,-24.493 -0.244,-56.453 v 0 c -3.455,-29.341 17.262,-31.659 27.856,-17.37 v 0 c 7.829,10.556 22.896,43.772 24.87,80.752 v 0 c 1.83,34.386 -6.573,66.578 -16.094,66.58 v 0 c -0.121,0 -0.242,-0.005 -0.364,-0.016"
         id="path3079"
         inkscape:connector-curvature="0" /></clipPath><linearGradient
       x1="0"
       y1="0"
       x2="1"
       y2="0"
       gradientUnits="userSpaceOnUse"
       gradientTransform="matrix(56.33749,154.78598,-154.78598,56.33749,420.03162,310.34122)"
       spreadMethod="pad"
       id="linearGradient3085"><stop
         style="stop-opacity:1;stop-color:#ffffff"
         offset="0"
         id="stop3087" /><stop
         style="stop-opacity:1;stop-color:#fbbf16"
         offset="1"
         id="stop3089" /></linearGradient><clipPath
       clipPathUnits="userSpaceOnUse"
       id="clipPath3097"><path
         d="m 457.886,465.695 c -11.204,-0.934 -11.094,-17.732 -11.594,-22.832 -0.642,-6.613 15.497,-40.864 2.655,-77.538 -11.644,-33.287 -18.424,-23.456 -18.053,-18.559 1.178,15.818 -1.027,35.602 -6.404,47.573 -1.207,2.665 -2.974,2.103 -2.628,-2.137 0.556,-7.003 3.534,-24.493 -0.244,-56.453 -3.455,-29.341 17.262,-31.659 27.856,-17.37 7.829,10.556 22.896,43.772 24.87,80.752 1.83,34.386 -6.573,66.578 -16.094,66.58 -0.121,0 -0.242,-0.005 -0.364,-0.016"
         id="path3099"
         inkscape:connector-curvature="0" /></clipPath><clipPath
       clipPathUnits="userSpaceOnUse"
       id="clipPath3105"><path
         d="m 326.447,262.123 h 7.61 v -21.301 h -7.61 z"
         id="path3107"
         inkscape:connector-curvature="0" /></clipPath><clipPath
       clipPathUnits="userSpaceOnUse"
       id="clipPath3113"><path
         d="m 326.447,262.123 h 7.61 v -21.301 h -7.61 z"
         id="path3115"
         inkscape:connector-curvature="0" /></clipPath><linearGradient
       x1="0"
       y1="0"
       x2="1"
       y2="0"
       gradientUnits="userSpaceOnUse"
       gradientTransform="matrix(0,20.432739,-20.432739,0,330.25217,241.59052)"
       spreadMethod="pad"
       id="linearGradient3121"><stop
         style="stop-opacity:1;stop-color:#ffffff"
         offset="0"
         id="stop3123" /><stop
         style="stop-opacity:1;stop-color:#fbbf16"
         offset="1"
         id="stop3125" /></linearGradient><clipPath
       clipPathUnits="userSpaceOnUse"
       id="clipPath3133"><path
         d="M 0,612 H 792 V 0 H 0 Z"
         id="path3135"
         inkscape:connector-curvature="0" /></clipPath><filter
       style="color-interpolation-filters:sRGB"
       inkscape:label="Drop Shadow"
       id="filter1072"><feFlood
         flood-opacity="0.392157"
         flood-color="rgb(0,0,0)"
         result="flood"
         id="feFlood1062" /><feComposite
         in="flood"
         in2="SourceGraphic"
         operator="in"
         result="composite1"
         id="feComposite1064" /><feGaussianBlur
         in="composite1"
         stdDeviation="6"
         result="blur"
         id="feGaussianBlur1066" /><feOffset
         dx="10"
         dy="-10"
         result="offset"
         id="feOffset1068" /><feComposite
         in="SourceGraphic"
         in2="offset"
         operator="over"
         result="composite2"
         id="feComposite1070" /></filter><filter
       style="color-interpolation-filters:sRGB"
       inkscape:label="Drop Shadow"
       id="filter1206"><feFlood
         flood-opacity="0.392157"
         flood-color="rgb(0,0,0)"
         result="flood"
         id="feFlood1196" /><feComposite
         in="flood"
         in2="SourceGraphic"
         operator="in"
         result="composite1"
         id="feComposite1198" /><feGaussianBlur
         in="composite1"
         stdDeviation="10"
         result="blur"
         id="feGaussianBlur1200" /><feOffset
         dx="10"
         dy="-10"
         result="offset"
         id="feOffset1202" /><feComposite
         in="SourceGraphic"
         in2="offset"
         operator="over"
         result="composite2"
         id="feComposite1204" /></filter></defs><sodipodi:namedview
     pagecolor="#ffffff"
     bordercolor="#666666"
     borderopacity="1"
     objecttolerance="10"
     gridtolerance="10"
     guidetolerance="10"
     inkscape:pageopacity="0"
     inkscape:pageshadow="2"
     inkscape:window-width="3440"
     inkscape:window-height="1376"
     id="namedview3049"
     showgrid="false"
     fit-margin-top="0"
     fit-margin-left="0"
     fit-margin-right="0"
     fit-margin-bottom="0"
     inkscape:zoom="2.1434391"
     inkscape:cx="169.94214"
     inkscape:cy="104.64659"
     inkscape:window-x="0"
     inkscape:window-y="27"
     inkscape:window-maximized="1"
     inkscape:current-layer="g3055" /><g
     id="g3055"
     inkscape:groupmode="layer"
     inkscape:label="logo_lpc_square"
     transform="matrix(1.25,0,0,-1.25,-153.91454,303.985)"
     style="display:inline"><path
       d="m 204.17898,181.74664 q 0.56114,0 0.95724,-0.3961 0.39611,-0.3631 0.39611,-0.92424 0,-0.56115 -0.39611,-0.92424 -0.3961,-0.3631 -0.95724,-0.3631 h -11.42096 q -0.56114,0 -0.95724,0.39611 -0.3631,0.3961 -0.3631,0.95724 v 20.43229 q 0,0.56115 0.3961,0.92424 0.3961,0.3961 0.99026,0.3961 0.56115,0 0.95725,-0.3961 0.3961,-0.36309 0.3961,-0.92424 v -19.77211 l -0.66017,0.59415 z"
       style="font-style:normal;font-variant:normal;font-weight:500;font-stretch:normal;font-size:42.66666794px;line-height:1;font-family:Quicksand;-inkscape-font-specification:'Quicksand Medium';letter-spacing:0px;word-spacing:0px;fill:#ffffff;fill-opacity:1;stroke:none;stroke-width:0.61891001"
       id="path1903"
       inkscape:connector-curvature="0" /><path
       d="m 211.40784,180.49231 q 0,-0.56114 -0.3961,-0.95724 -0.36309,-0.39611 -0.92424,-0.39611 -0.59416,0 -0.95725,0.39611 -0.36309,0.3961 -0.36309,0.95724 v 14.6558 q 0,0.56114 0.36309,0.92423 0.3961,0.3961 0.95725,0.3961 0.56115,0 0.92424,-0.3961 0.3961,-0.36309 0.3961,-0.92423 z m -1.32034,18.18771 q -0.82521,0 -1.22132,0.33009 -0.3961,0.33008 -0.3961,1.02326 v 0.46212 q 0,0.69318 0.42911,1.02326 0.42911,0.33009 1.22132,0.33009 0.7922,0 1.1883,-0.33009 0.39611,-0.33008 0.39611,-1.02326 v -0.46212 q 0,-0.69318 -0.42912,-1.02326 -0.3961,-0.33009 -1.1883,-0.33009 z"
       style="font-style:normal;font-variant:normal;font-weight:500;font-stretch:normal;font-size:42.66666794px;line-height:1;font-family:Quicksand;-inkscape-font-specification:'Quicksand Medium';letter-spacing:0px;word-spacing:0px;fill:#ffffff;fill-opacity:1;stroke:none;stroke-width:0.61891001"
       id="path1905"
       inkscape:connector-curvature="0" /><path
       d="m 224.64422,196.63349 q 2.24458,0 3.53192,-0.92424 1.28733,-0.92424 1.81546,-2.47564 0.56115,-1.5514 0.56115,-3.4659 v -9.2754 q 0,-0.56114 -0.3961,-0.95724 -0.3631,-0.39611 -0.92424,-0.39611 -0.56114,0 -0.95725,0.39611 -0.3631,0.3961 -0.3631,0.95724 v 9.20939 q 0,1.25432 -0.3961,2.24458 -0.36309,1.02326 -1.25432,1.61742 -0.85822,0.62716 -2.37661,0.62716 -1.38636,0 -2.54166,-0.62716 -1.1553,-0.59416 -1.84848,-1.61742 -0.69318,-0.99026 -0.69318,-2.24458 v -9.20939 q 0,-0.56114 -0.3961,-0.95724 -0.36309,-0.39611 -0.92424,-0.39611 -0.56115,0 -0.95725,0.39611 -0.36309,0.3961 -0.36309,0.95724 v 14.39172 q 0,0.56115 0.36309,0.92425 0.3961,0.3961 0.95725,0.3961 0.59416,0 0.95725,-0.3961 0.36309,-0.3631 0.36309,-0.92425 v -2.3436 l -0.66017,-0.72619 q 0.16504,0.85823 0.75919,1.71645 0.59416,0.89123 1.48539,1.58441 0.89123,0.69318 1.98051,1.08928 1.08928,0.42911 2.27759,0.42911 z"
       style="font-style:normal;font-variant:normal;font-weight:500;font-stretch:normal;font-size:42.66666794px;line-height:1;font-family:Quicksand;-inkscape-font-specification:'Quicksand Medium';letter-spacing:0px;word-spacing:0px;fill:#ffffff;fill-opacity:1;stroke:none;stroke-width:0.61891001"
       id="path1907"
       inkscape:connector-curvature="0" /><path
       d="m 248.2123,196.20438 q 0.59416,0 0.95725,-0.3961 0.36309,-0.3631 0.36309,-0.92425 v -9.01132 q 0,-3.33386 -1.88149,-5.18235 -1.84847,-1.81546 -5.18233,-1.81546 -3.30086,0 -5.18234,1.81546 -1.84848,1.84849 -1.84848,5.18235 v 9.01132 q 0,0.56115 0.36309,0.92425 0.39611,0.3961 0.95725,0.3961 0.59415,0 0.95725,-0.3961 0.36309,-0.3631 0.36309,-0.92425 v -9.01132 q 0,-2.24458 1.1553,-3.39989 1.1553,-1.15529 3.23484,-1.15529 2.14555,0 3.26784,1.15529 1.1553,1.15531 1.1553,3.39989 v 9.01132 q 0,0.56115 0.36309,0.92425 0.3961,0.3961 0.95725,0.3961 z"
       style="font-style:normal;font-variant:normal;font-weight:500;font-stretch:normal;font-size:42.66666794px;line-height:1;font-family:Quicksand;-inkscape-font-specification:'Quicksand Medium';letter-spacing:0px;word-spacing:0px;fill:#ffffff;fill-opacity:1;stroke:none;stroke-width:0.61891001"
       id="path1909"
       inkscape:connector-curvature="0" /><path
       d="m 254.25283,196.40243 q 0.62716,0 1.05627,-0.56114 l 11.48697,-14.6558 q 0.26407,-0.36309 0.26407,-0.7922 0,-0.56115 -0.3961,-0.95725 -0.3961,-0.3961 -0.92424,-0.3961 -0.62717,0 -1.08929,0.59415 l -11.48696,14.62279 q -0.26407,0.36309 -0.26407,0.7922 0,0.59416 0.3961,0.95725 0.42911,0.3961 0.95725,0.3961 z m 0,-17.32948 q -0.42912,0 -0.85822,0.33008 -0.42912,0.33009 -0.42912,0.85823 0,0.4291 0.33009,0.82521 l 5.4134,6.83277 1.38636,-2.17856 -4.78624,-6.1396 q -0.39611,-0.52813 -1.05627,-0.52813 z m 11.48697,17.32948 q 0.56114,0 0.89123,-0.36309 0.36309,-0.3631 0.36309,-0.82522 0,-0.19805 -0.099,-0.42911 -0.066,-0.23106 -0.23105,-0.42911 l -5.3804,-6.89879 -1.38635,2.01353 4.75322,6.33764 q 0.46212,0.59415 1.08929,0.59415 z"
       style="font-style:normal;font-variant:normal;font-weight:500;font-stretch:normal;font-size:42.66666794px;line-height:1;font-family:Quicksand;-inkscape-font-specification:'Quicksand Medium';letter-spacing:0px;word-spacing:0px;fill:#ffffff;fill-opacity:1;stroke:none;stroke-width:0.61891001"
       id="path1911"
       inkscape:connector-curvature="0" /><path
       d="m 200.48202,166.58974 q 1.81547,0 3.26784,-0.89124 1.45239,-0.89123 2.27759,-2.44262 0.85823,-1.55141 0.85823,-3.53192 0,-1.9475 -0.85823,-3.53191 -0.8252,-1.58441 -2.27759,-2.50865 -1.45237,-0.92424 -3.26784,-0.92424 h -6.70073 l 0.23106,0.39611 v -8.31816 q 0,-0.56115 -0.3631,-0.95725 -0.36309,-0.3961 -0.92424,-0.3961 -0.59415,0 -0.95724,0.3961 -0.33009,0.3961 -0.33009,0.95725 v 20.43228 q 0,0.56115 0.3631,0.92424 0.3961,0.39611 0.95724,0.39611 z m 0,-11.28892 q 1.08928,0 1.9145,0.59415 0.82521,0.59415 1.32034,1.61742 0.49513,1.02326 0.49513,2.21157 0,1.25433 -0.49513,2.21157 -0.49513,0.95725 -1.32034,1.5184 -0.82522,0.59415 -1.9145,0.59415 h -6.70073 l 0.23106,0.36309 v -9.44044 l -0.23106,0.33009 z"
       style="font-style:normal;font-variant:normal;font-weight:500;font-stretch:normal;font-size:42.66666794px;line-height:1;font-family:Quicksand;-inkscape-font-specification:'Quicksand Medium';letter-spacing:0px;word-spacing:0px;fill:#ffffff;fill-opacity:1;stroke:none;stroke-width:0.61891001"
       id="path1913"
       inkscape:connector-curvature="0" /><path
       d="m 213.65239,144.83711 q 0,-0.56115 -0.3961,-0.95725 -0.3961,-0.3961 -0.95724,-0.3961 -0.56115,0 -0.92425,0.3961 -0.36309,0.3961 -0.36309,0.95725 v 21.75263 q 0,0.56114 0.36309,0.92424 0.39611,0.3961 0.95725,0.3961 0.59415,0 0.95725,-0.3961 0.36309,-0.3631 0.36309,-0.92424 z"
       style="font-style:normal;font-variant:normal;font-weight:500;font-stretch:normal;font-size:42.66666794px;line-height:1;font-family:Quicksand;-inkscape-font-specification:'Quicksand Medium';letter-spacing:0px;word-spacing:0px;fill:#ffffff;fill-opacity:1;stroke:none;stroke-width:0.61891001"
       id="path1915"
       inkscape:connector-curvature="0" /><path
       d="m 231.37788,160.54917 q 0.59416,0 0.95725,-0.3961 0.36309,-0.36309 0.36309,-0.92424 v -9.01133 q 0,-3.33386 -1.88149,-5.18233 -1.84847,-1.81548 -5.18233,-1.81548 -3.30086,0 -5.18234,1.81548 -1.84848,1.84847 -1.84848,5.18233 v 9.01133 q 0,0.56115 0.36309,0.92424 0.3961,0.3961 0.95725,0.3961 0.59415,0 0.95725,-0.3961 0.36309,-0.36309 0.36309,-0.92424 v -9.01133 q 0,-2.24458 1.1553,-3.39987 1.1553,-1.15531 3.23484,-1.15531 2.14555,0 3.26784,1.15531 1.1553,1.15529 1.1553,3.39987 v 9.01133 q 0,0.56115 0.36309,0.92424 0.3961,0.3961 0.95725,0.3961 z"
       style="font-style:normal;font-variant:normal;font-weight:500;font-stretch:normal;font-size:42.66666794px;line-height:1;font-family:Quicksand;-inkscape-font-specification:'Quicksand Medium';letter-spacing:0px;word-spacing:0px;fill:#ffffff;fill-opacity:1;stroke:none;stroke-width:0.61891001"
       id="path1917"
       inkscape:connector-curvature="0" /><path
       d="m 245.73656,160.81324 q 2.24457,0 3.63093,-1.1553 1.41937,-1.12229 1.88149,-3.20183 h -0.49513 l 0.23106,0.59416 q 0.3961,0.92424 1.35335,1.78246 0.95724,0.85822 2.21157,1.41937 1.25433,0.56114 2.60767,0.56114 2.17857,0 3.4329,-0.95725 1.25432,-0.92424 1.78246,-2.50865 0.56114,-1.55139 0.56114,-3.4989 v -9.01133 q 0,-0.56115 -0.3961,-0.95725 -0.3631,-0.3961 -0.92425,-0.3961 -0.59415,0 -0.95724,0.3961 -0.36309,0.3961 -0.36309,0.95725 v 8.94531 q 0,1.28733 -0.3961,2.3106 -0.3631,1.05627 -1.22132,1.65043 -0.82522,0.62716 -2.27759,0.62716 -1.35335,0 -2.47564,-0.62716 -1.12229,-0.59416 -1.78246,-1.65043 -0.66017,-1.02327 -0.66017,-2.3106 v -8.94531 q 0,-0.56115 -0.3631,-0.95725 -0.36309,-0.3961 -0.95724,-0.3961 -0.56115,0 -0.95725,0.3961 -0.3631,0.3961 -0.3631,0.95725 v 9.04434 q 0,1.25433 -0.36309,2.24458 -0.33009,1.02326 -1.15529,1.61742 -0.82522,0.62716 -2.27759,0.62716 -1.32035,0 -2.40963,-0.62716 -1.08928,-0.59416 -1.74945,-1.61742 -0.66017,-0.99025 -0.66017,-2.24458 v -9.04434 q 0,-0.56115 -0.39611,-0.95725 -0.36309,-0.3961 -0.92423,-0.3961 -0.56115,0 -0.95725,0.3961 -0.36309,0.3961 -0.36309,0.95725 v 14.39172 q 0,0.56115 0.36309,0.92424 0.3961,0.3961 0.95725,0.3961 0.59415,0 0.95724,-0.3961 0.3631,-0.36309 0.3631,-0.92424 v -2.50864 l -0.72619,-0.79221 q 0.13203,0.85822 0.66017,1.71644 0.56114,0.85823 1.41937,1.58441 0.85822,0.72619 1.91449,1.1553 1.05628,0.42911 2.24459,0.42911 z"
       style="font-style:normal;font-variant:normal;font-weight:500;font-stretch:normal;font-size:42.66666794px;line-height:1;font-family:Quicksand;-inkscape-font-specification:'Quicksand Medium';letter-spacing:0px;word-spacing:0px;fill:#ffffff;fill-opacity:1;stroke:none;stroke-width:0.61891001"
       id="path1919"
       inkscape:connector-curvature="0" /><path
       d="m 276.23639,160.97829 q 2.24458,0 4.02704,-1.15531 1.78246,-1.12228 2.80572,-3.10279 1.05628,-1.98052 1.05628,-4.58819 0,-2.60768 -1.05628,-4.62119 -1.02326,-2.01353 -2.80572,-3.20183 -1.74946,-1.1553 -3.96102,-1.1553 -1.22132,0 -2.3106,0.36309 -1.05627,0.3961 -1.9475,1.02327 -0.85823,0.66017 -1.45238,1.41936 -0.59416,0.7922 -0.85822,1.55141 l 0.72619,0.46211 v -3.30085 q 0,-0.56115 -0.3631,-0.95725 -0.36309,-0.3961 -0.95725,-0.3961 -0.56114,0 -0.95724,0.36309 -0.3631,0.3961 -0.3631,0.99026 v 21.88465 q 0,0.56115 0.3631,0.95726 0.3961,0.3961 0.95724,0.3961 0.59416,0 0.95725,-0.3961 0.3631,-0.39611 0.3631,-0.95726 V 156.3901 l -0.49513,0.26406 q 0.23105,0.82522 0.7922,1.58441 0.59416,0.79221 1.41937,1.38636 0.85822,0.62717 1.88148,0.99026 1.05628,0.3631 2.17857,0.3631 z m -0.29708,-2.44264 q -1.65043,0 -2.93776,-0.82521 -1.25432,-0.82521 -1.98051,-2.27759 -0.69318,-1.45238 -0.69318,-3.30085 0,-1.84848 0.69318,-3.33386 0.72619,-1.48539 1.98051,-2.34361 1.28733,-0.85822 2.93776,-0.85822 1.65043,0 2.90475,0.85822 1.25432,0.85822 1.98051,2.34361 0.72619,1.48538 0.72619,3.33386 0,1.84847 -0.72619,3.30085 -0.72619,1.45238 -1.98051,2.27759 -1.25432,0.82521 -2.90475,0.82521 z"
       style="font-style:normal;font-variant:normal;font-weight:500;font-stretch:normal;font-size:42.66666794px;line-height:1;font-family:Quicksand;-inkscape-font-specification:'Quicksand Medium';letter-spacing:0px;word-spacing:0px;fill:#ffffff;fill-opacity:1;stroke:none;stroke-width:0.61891001"
       id="path1921"
       inkscape:connector-curvature="0" /><path
       d="m 295.97544,143.15368 q -2.64068,0 -4.6212,1.12228 -1.98051,1.1223 -3.1028,3.0698 -1.08928,1.98051 -1.08928,4.55518 0,2.87174 1.12229,4.88526 1.1553,2.04653 2.97077,3.10281 1.84847,1.08928 3.895,1.08928 1.5184,0 2.93777,-0.56115 1.41936,-0.56115 2.50864,-1.65043 1.08928,-1.05627 1.74946,-2.57466 0.66016,-1.48539 0.69318,-3.33386 0,-0.52814 -0.39611,-0.89123 -0.3961,-0.3631 -0.92424,-0.3631 h -13.03837 l -0.59415,2.27759 h 12.70828 l -0.52813,-0.46212 v 0.72619 q -0.13204,1.35335 -0.92424,2.31059 -0.7592,0.99026 -1.88149,1.5184 -1.08928,0.52814 -2.3106,0.52814 -0.99026,0 -1.98051,-0.3631 -0.95725,-0.33008 -1.74945,-1.12229 -0.75919,-0.7592 -1.25432,-1.98051 -0.46213,-1.22132 -0.46213,-2.93776 0,-1.91449 0.7592,-3.36687 0.79221,-1.45238 2.17857,-2.3106 1.38636,-0.82521 3.23483,-0.82521 1.1553,0 2.01352,0.29708 0.85822,0.29707 1.48539,0.72619 0.62715,0.46211 1.05627,0.92423 0.42911,0.29708 0.82521,0.29708 0.49513,0 0.79221,-0.33008 0.33008,-0.33009 0.33008,-0.79221 0,-0.56115 -0.52813,-0.99025 -0.92424,-1.02327 -2.50865,-1.81548 -1.58441,-0.75919 -3.36687,-0.75919 z"
       style="font-style:normal;font-variant:normal;font-weight:500;font-stretch:normal;font-size:42.66666794px;line-height:1;font-family:Quicksand;-inkscape-font-specification:'Quicksand Medium';letter-spacing:0px;word-spacing:0px;fill:#ffffff;fill-opacity:1;stroke:none;stroke-width:0.61891001"
       id="path1923"
       inkscape:connector-curvature="0" /><path
       d="m 308.32063,143.48376 q -0.56114,0 -0.95724,0.3961 -0.3631,0.3961 -0.3631,0.95725 v 14.39172 q 0,0.56115 0.3631,0.92424 0.3961,0.3961 0.95724,0.3961 0.59416,0 0.95725,-0.3961 0.3631,-0.36309 0.3631,-0.92424 v -4.35713 l -0.39611,0.69318 q 0.19806,1.02327 0.69318,1.98051 0.52813,0.99026 1.32034,1.74946 0.7922,0.79221 1.81547,1.22131 1.02327,0.46213 2.24458,0.46213 0.72619,0 1.32034,-0.3631 0.62717,-0.33008 0.62717,-0.95725 0,-0.69318 -0.3631,-1.02326 -0.36309,-0.33008 -0.82521,-0.33008 -0.42911,0 -0.82522,0.16504 -0.3961,0.19805 -0.99025,0.19805 -0.82522,0 -1.65043,-0.46212 -0.7922,-0.42911 -1.48538,-1.25433 -0.66018,-0.82521 -1.08928,-1.88149 -0.3961,-1.02325 -0.3961,-2.21156 v -8.02108 q 0,-0.56115 -0.39611,-0.95725 -0.36309,-0.3961 -0.92424,-0.3961 z"
       style="font-style:normal;font-variant:normal;font-weight:500;font-stretch:normal;font-size:42.66666794px;line-height:1;font-family:Quicksand;-inkscape-font-specification:'Quicksand Medium';letter-spacing:0px;word-spacing:0px;fill:#ffffff;fill-opacity:1;stroke:none;stroke-width:0.61891001"
       id="path1925"
       inkscape:connector-curvature="0" /><path
       d="m 319.27942,146.19046 q -0.29707,0.42912 -0.26406,0.89123 0.033,0.49513 0.56114,0.85822 0.33009,0.23106 0.7592,0.19805 0.46212,-0.033 0.82521,-0.4291 0.92424,-1.08928 2.11255,-1.74946 1.18831,-0.62716 2.90475,-0.62716 0.79221,0.033 1.58441,0.26407 0.79221,0.23106 1.32034,0.7922 0.56115,0.59416 0.56115,1.5514 0,0.92424 -0.56115,1.45238 -0.56114,0.56114 -1.45237,0.89123 -0.89123,0.36309 -1.94751,0.62716 -1.08928,0.29708 -2.14555,0.66018 -1.05628,0.3961 -1.91449,0.95724 -0.82522,0.59415 -1.35336,1.45237 -0.49513,0.89123 -0.49513,2.14556 0,1.48539 0.79221,2.57467 0.82521,1.08928 2.17856,1.68343 1.38636,0.59416 3.00378,0.59416 0.92424,0 1.9145,-0.23107 1.02326,-0.19805 1.98051,-0.72619 0.95724,-0.49512 1.68343,-1.38635 0.29708,-0.33008 0.33008,-0.82521 0.033,-0.49513 -0.4291,-0.89123 -0.3631,-0.26408 -0.82522,-0.23106 -0.42911,0.033 -0.72619,0.33008 -0.69318,0.82521 -1.74945,1.25432 -1.02326,0.46212 -2.27759,0.46212 -0.7922,0 -1.55139,-0.23105 -0.75921,-0.23107 -1.28734,-0.79221 -0.49513,-0.52814 -0.49513,-1.48538 0.033,-0.89123 0.59416,-1.45238 0.56114,-0.56114 1.51839,-0.92424 0.95725,-0.33008 2.11254,-0.66017 1.05627,-0.26407 2.01353,-0.62716 0.99025,-0.33009 1.78246,-0.89123 0.7922,-0.56115 1.25432,-1.45238 0.46212,-0.85822 0.46212,-2.17856 0,-1.51839 -0.85822,-2.64068 -0.85822,-1.08928 -2.27759,-1.68344 -1.38636,-0.56114 -3.00378,-0.56114 -1.81546,0 -3.59793,0.69318 -1.74945,0.69318 -3.03679,2.3436 z"
       style="font-style:normal;font-variant:normal;font-weight:500;font-stretch:normal;font-size:42.66666794px;line-height:1;font-family:Quicksand;-inkscape-font-specification:'Quicksand Medium';letter-spacing:0px;word-spacing:0px;fill:#ffffff;fill-opacity:1;stroke:none;stroke-width:0.61891001"
       id="path1927"
       inkscape:connector-curvature="0" /><path
       d="m 208.07399,131.44149 q 0.56114,-0.29707 0.62715,-0.89123 0.099,-0.59415 -0.29707,-1.08928 -0.29708,-0.42911 -0.7592,-0.46212 -0.46211,-0.033 -0.92424,0.19805 -1.08928,0.66017 -2.3436,1.02327 -1.25432,0.3961 -2.64068,0.3961 -1.94751,0 -3.56493,-0.69318 -1.61741,-0.66017 -2.80572,-1.88149 -1.18831,-1.22132 -1.84848,-2.90475 -0.66017,-1.68344 -0.66017,-3.72996 0,-2.17857 0.69318,-3.89501 0.69318,-1.71644 1.88148,-2.93776 1.22132,-1.18831 2.80573,-1.81547 1.61742,-0.62716 3.49891,-0.62716 1.35335,0 2.60767,0.36309 1.25433,0.36309 2.37661,1.05627 0.46213,0.23107 0.92424,0.16505 0.46212,-0.066 0.79221,-0.46212 0.3961,-0.52813 0.29708,-1.12229 -0.099,-0.56115 -0.62717,-0.82521 -0.82521,-0.49513 -1.88149,-0.92425 -1.05627,-0.3961 -2.21156,-0.62716 -1.12229,-0.23106 -2.27759,-0.23106 -2.37662,0 -4.48916,0.82522 -2.11255,0.82521 -3.72997,2.37662 -1.61742,1.55139 -2.57467,3.72996 -0.92423,2.21157 -0.92423,4.95128 0,2.57466 0.89123,4.72021 0.89123,2.14556 2.47564,3.72997 1.61741,1.58441 3.72996,2.47564 2.14555,0.89123 4.6212,0.89123 1.71644,0 3.33386,-0.46212 1.65042,-0.46212 3.00378,-1.32034 z"
       style="font-style:normal;font-variant:normal;font-weight:500;font-stretch:normal;font-size:42.66666794px;line-height:1;font-family:Quicksand;-inkscape-font-specification:'Quicksand Medium';letter-spacing:0px;word-spacing:0px;fill:#ffffff;fill-opacity:1;stroke:none;stroke-width:0.61891001"
       id="path1929"
       inkscape:connector-curvature="0" /><path
       d="m 228.44022,118.43613 q 0,-2.57467 -1.1553,-4.58819 -1.12229,-2.01352 -3.06979,-3.16882 -1.9145,-1.1553 -4.32412,-1.1553 -2.40962,0 -4.35713,1.1553 -1.9475,1.1553 -3.1028,3.16882 -1.12229,2.01352 -1.12229,4.58819 0,2.57466 1.12229,4.58819 1.1553,2.01351 3.1028,3.16882 1.94751,1.15529 4.35713,1.15529 2.40962,0 4.32412,-1.15529 1.9475,-1.15531 3.06979,-3.16882 1.1553,-2.01353 1.1553,-4.58819 z m -2.64068,0 q 0,1.9145 -0.79221,3.36687 -0.7592,1.45237 -2.11254,2.27759 -1.32035,0.82521 -3.00378,0.82521 -1.68344,0 -3.03679,-0.82521 -1.32034,-0.82522 -2.11254,-2.27759 -0.79221,-1.45237 -0.79221,-3.36687 0,-1.88149 0.79221,-3.33386 0.7922,-1.45238 2.11254,-2.3106 1.35335,-0.82522 3.03679,-0.82522 1.68343,0 3.00378,0.82522 1.35334,0.85822 2.11254,2.3106 0.79221,1.45237 0.79221,3.33386 z"
       style="font-style:normal;font-variant:normal;font-weight:500;font-stretch:normal;font-size:42.66666794px;line-height:1;font-family:Quicksand;-inkscape-font-specification:'Quicksand Medium';letter-spacing:0px;word-spacing:0px;fill:#ffffff;fill-opacity:1;stroke:none;stroke-width:0.61891001"
       id="path1931"
       inkscape:connector-curvature="0" /><path
       d="m 240.88438,127.34843 q 2.24458,0 3.53191,-0.92424 1.28733,-0.92423 1.81547,-2.47564 0.56114,-1.5514 0.56114,-3.46589 v -9.2754 q 0,-0.56114 -0.3961,-0.95724 -0.36309,-0.39611 -0.92424,-0.39611 -0.56114,0 -0.95725,0.39611 -0.36309,0.3961 -0.36309,0.95724 v 9.20938 q 0,1.25432 -0.3961,2.24458 -0.3631,1.02327 -1.25433,1.61742 -0.85822,0.62716 -2.37661,0.62716 -1.38636,0 -2.54166,-0.62716 -1.15529,-0.59415 -1.84847,-1.61742 -0.69318,-0.99026 -0.69318,-2.24458 v -9.20938 q 0,-0.56114 -0.3961,-0.95724 -0.3631,-0.39611 -0.92425,-0.39611 -0.56114,0 -0.95724,0.39611 -0.3631,0.3961 -0.3631,0.95724 v 14.39172 q 0,0.56115 0.3631,0.92424 0.3961,0.3961 0.95724,0.3961 0.59416,0 0.95725,-0.3961 0.3631,-0.36309 0.3631,-0.92424 v -2.34361 l -0.66018,-0.72618 q 0.16505,0.85822 0.7592,1.71644 0.59416,0.89123 1.48539,1.58441 0.89123,0.69318 1.98051,1.08928 1.08928,0.42911 2.27759,0.42911 z"
       style="font-style:normal;font-variant:normal;font-weight:500;font-stretch:normal;font-size:42.66666794px;line-height:1;font-family:Quicksand;-inkscape-font-specification:'Quicksand Medium';letter-spacing:0px;word-spacing:0px;fill:#ffffff;fill-opacity:1;stroke:none;stroke-width:0.61891001"
       id="path1933"
       inkscape:connector-curvature="0" /><path
       d="m 258.808,134.21421 q 0.56114,0 1.15529,-0.13204 0.62717,-0.13203 1.05628,-0.46211 0.46212,-0.33009 0.46212,-0.89123 0,-0.52814 -0.33009,-0.89123 -0.33008,-0.33009 -0.79221,-0.33009 -0.29707,0 -0.8252,0.16504 -0.52814,0.19805 -1.08928,0.19805 -0.75921,0 -1.25433,-0.33008 -0.46212,-0.33009 -0.69318,-0.89123 -0.19805,-0.52814 -0.19805,-1.18831 v -18.25372 q 0,-0.56114 -0.39611,-0.95724 -0.36309,-0.39611 -0.92423,-0.39611 -0.59415,0 -0.95725,0.39611 -0.36309,0.3961 -0.36309,0.95724 v 18.22071 q 0,2.21157 1.35334,3.49891 1.38636,1.28733 3.79599,1.28733 z m 0.92424,-7.55896 q 0.52813,0 0.89123,-0.36309 0.36309,-0.33009 0.36309,-0.85822 0,-0.52814 -0.36309,-0.89124 -0.3631,-0.33008 -0.89123,-0.33008 h -8.28515 q -0.52813,0 -0.89123,0.3631 -0.36309,0.36309 -0.36309,0.85822 0,0.56115 0.36309,0.89123 0.3631,0.33008 0.89123,0.33008 z"
       style="font-style:normal;font-variant:normal;font-weight:500;font-stretch:normal;font-size:42.66666794px;line-height:1;font-family:Quicksand;-inkscape-font-specification:'Quicksand Medium';letter-spacing:0px;word-spacing:0px;fill:#ffffff;fill-opacity:1;stroke:none;stroke-width:0.61891001"
       id="path1935"
       inkscape:connector-curvature="0" /><path
       d="m 271.15312,109.52382 q -2.64068,0 -4.6212,1.1223 -1.98051,1.12228 -3.10279,3.06979 -1.08928,1.98051 -1.08928,4.55518 0,2.87174 1.12228,4.88526 1.1553,2.04653 2.97077,3.1028 1.84848,1.08928 3.89501,1.08928 1.51839,0 2.93775,-0.56114 1.41937,-0.56115 2.50866,-1.65043 1.08928,-1.05627 1.74944,-2.57467 0.66018,-1.48538 0.69318,-3.33386 0,-0.52814 -0.3961,-0.89123 -0.3961,-0.36309 -0.92423,-0.36309 h -13.03838 l -0.59415,2.27759 h 12.70829 l -0.52814,-0.46212 v 0.72619 q -0.13203,1.35334 -0.92424,2.3106 -0.7592,0.99025 -1.88148,1.51838 -1.08928,0.52814 -2.3106,0.52814 -0.99026,0 -1.98051,-0.36309 -0.95725,-0.33009 -1.74945,-1.12229 -0.75921,-0.75919 -1.25433,-1.98051 -0.46212,-1.22132 -0.46212,-2.93776 0,-1.9145 0.75919,-3.36687 0.79221,-1.45238 2.17857,-2.3106 1.38635,-0.82522 3.23484,-0.82522 1.15529,0 2.01351,0.29708 0.85823,0.29708 1.48539,0.72619 0.62716,0.46212 1.05628,0.92424 0.4291,0.29708 0.8252,0.29708 0.49513,0 0.79221,-0.33009 0.33009,-0.33009 0.33009,-0.7922 0,-0.56115 -0.52814,-0.99026 -0.92424,-1.02327 -2.50865,-1.81547 -1.58441,-0.7592 -3.36687,-0.7592 z"
       style="font-style:normal;font-variant:normal;font-weight:500;font-stretch:normal;font-size:42.66666794px;line-height:1;font-family:Quicksand;-inkscape-font-specification:'Quicksand Medium';letter-spacing:0px;word-spacing:0px;fill:#ffffff;fill-opacity:1;stroke:none;stroke-width:0.61891001"
       id="path1937"
       inkscape:connector-curvature="0" /><path
       d="m 283.49831,109.85391 q -0.56115,0 -0.95725,0.39611 -0.36309,0.3961 -0.36309,0.95724 v 14.39172 q 0,0.56115 0.36309,0.92424 0.3961,0.3961 0.95725,0.3961 0.59416,0 0.95725,-0.3961 0.36309,-0.36309 0.36309,-0.92424 v -4.35712 l -0.3961,0.69318 q 0.19805,1.02326 0.69317,1.98051 0.52814,0.99025 1.32035,1.74945 0.7922,0.7922 1.81547,1.22132 1.02326,0.46211 2.24458,0.46211 0.72619,0 1.32034,-0.36309 0.62716,-0.33009 0.62716,-0.95725 0,-0.69318 -0.36309,-1.02326 -0.36309,-0.33009 -0.82522,-0.33009 -0.4291,0 -0.82521,0.16504 -0.3961,0.19805 -0.99025,0.19805 -0.82522,0 -1.65043,-0.46211 -0.79221,-0.42912 -1.48539,-1.25433 -0.66017,-0.82521 -1.08928,-1.88148 -0.3961,-1.02327 -0.3961,-2.21158 v -8.02107 q 0,-0.56114 -0.3961,-0.95724 -0.3631,-0.39611 -0.92424,-0.39611 z"
       style="font-style:normal;font-variant:normal;font-weight:500;font-stretch:normal;font-size:42.66666794px;line-height:1;font-family:Quicksand;-inkscape-font-specification:'Quicksand Medium';letter-spacing:0px;word-spacing:0px;fill:#ffffff;fill-opacity:1;stroke:none;stroke-width:0.61891001"
       id="path1939"
       inkscape:connector-curvature="0" /><path
       d="m 302.57716,109.52382 q -2.64068,0 -4.62119,1.1223 -1.98051,1.12228 -3.1028,3.06979 -1.08928,1.98051 -1.08928,4.55518 0,2.87174 1.12229,4.88526 1.15529,2.04653 2.97077,3.1028 1.84847,1.08928 3.89501,1.08928 1.51838,0 2.93775,-0.56114 1.41937,-0.56115 2.50865,-1.65043 1.08928,-1.05627 1.74945,-2.57467 0.66017,-1.48538 0.69318,-3.33386 0,-0.52814 -0.3961,-0.89123 -0.3961,-0.36309 -0.92424,-0.36309 h -13.03837 l -0.59415,2.27759 h 12.70828 l -0.52813,-0.46212 v 0.72619 q -0.13204,1.35334 -0.92425,2.3106 -0.75919,0.99025 -1.88148,1.51838 -1.08928,0.52814 -2.31059,0.52814 -0.99026,0 -1.98052,-0.36309 -0.95725,-0.33009 -1.74945,-1.12229 -0.7592,-0.75919 -1.25433,-1.98051 -0.46211,-1.22132 -0.46211,-2.93776 0,-1.9145 0.75919,-3.36687 0.79221,-1.45238 2.17856,-2.3106 1.38636,-0.82522 3.23484,-0.82522 1.1553,0 2.01352,0.29708 0.85822,0.29708 1.48539,0.72619 0.62716,0.46212 1.05627,0.92424 0.42911,0.29708 0.82521,0.29708 0.49513,0 0.79221,-0.33009 0.33008,-0.33009 0.33008,-0.7922 0,-0.56115 -0.52814,-0.99026 -0.92424,-1.02327 -2.50865,-1.81547 -1.58441,-0.7592 -3.36687,-0.7592 z"
       style="font-style:normal;font-variant:normal;font-weight:500;font-stretch:normal;font-size:42.66666794px;line-height:1;font-family:Quicksand;-inkscape-font-specification:'Quicksand Medium';letter-spacing:0px;word-spacing:0px;fill:#ffffff;fill-opacity:1;stroke:none;stroke-width:0.61891001"
       id="path1941"
       inkscape:connector-curvature="0" /><path
       d="m 322.08521,127.34843 q 2.24458,0 3.53191,-0.92424 1.28734,-0.92423 1.81547,-2.47564 0.56115,-1.5514 0.56115,-3.46589 v -9.2754 q 0,-0.56114 -0.3961,-0.95724 -0.3631,-0.39611 -0.92425,-0.39611 -0.56114,0 -0.95724,0.39611 -0.3631,0.3961 -0.3631,0.95724 v 9.20938 q 0,1.25432 -0.3961,2.24458 -0.36309,1.02327 -1.25432,1.61742 -0.85822,0.62716 -2.37662,0.62716 -1.38636,0 -2.54165,-0.62716 -1.15531,-0.59415 -1.84848,-1.61742 -0.69318,-0.99026 -0.69318,-2.24458 v -9.20938 q 0,-0.56114 -0.39611,-0.95724 -0.36309,-0.39611 -0.92423,-0.39611 -0.56115,0 -0.95725,0.39611 -0.36309,0.3961 -0.36309,0.95724 v 14.39172 q 0,0.56115 0.36309,0.92424 0.3961,0.3961 0.95725,0.3961 0.59415,0 0.95724,-0.3961 0.3631,-0.36309 0.3631,-0.92424 v -2.34361 l -0.66017,-0.72618 q 0.16504,0.85822 0.75919,1.71644 0.59416,0.89123 1.48539,1.58441 0.89123,0.69318 1.98051,1.08928 1.08928,0.42911 2.27759,0.42911 z"
       style="font-style:normal;font-variant:normal;font-weight:500;font-stretch:normal;font-size:42.66666794px;line-height:1;font-family:Quicksand;-inkscape-font-specification:'Quicksand Medium';letter-spacing:0px;word-spacing:0px;fill:#ffffff;fill-opacity:1;stroke:none;stroke-width:0.61891001"
       id="path1943"
       inkscape:connector-curvature="0" /><path
       d="m 340.47096,127.34843 q 1.68343,0 3.03678,-0.36309 1.35335,-0.3631 2.14556,-0.99025 0.7922,-0.62717 0.7922,-1.41937 0,-0.42912 -0.29707,-0.82522 -0.29708,-0.3961 -0.79221,-0.3961 -0.46212,0 -0.7592,0.16505 -0.26407,0.16504 -0.52813,0.4291 -0.23106,0.26407 -0.66018,0.46213 -0.3961,0.23105 -1.15529,0.36309 -0.7592,0.13203 -1.5184,0.13203 -1.81546,0 -3.20182,-0.85822 -1.35336,-0.85822 -2.14556,-2.3106 -0.79221,-1.45238 -0.79221,-3.30085 0,-1.84848 0.75921,-3.30086 0.75919,-1.45237 2.11254,-2.31059 1.35335,-0.85823 3.13581,-0.85823 1.1553,0 1.84848,0.19806 0.69318,0.19805 1.15529,0.46212 0.59416,0.33008 0.89123,0.66017 0.33009,0.33009 0.85823,0.33009 0.56114,0 0.85822,-0.3631 0.33009,-0.36309 0.33009,-0.89123 0,-0.59416 -0.82522,-1.25433 -0.82521,-0.66016 -2.24457,-1.12229 -1.38636,-0.46212 -3.16882,-0.46212 -2.50865,0 -4.39014,1.1553 -1.88149,1.18831 -2.93776,3.20183 -1.02327,2.04653 -1.02327,4.55518 0,2.50865 1.05628,4.52217 1.08928,2.01352 3.00377,3.20183 1.9145,1.1883 4.45616,1.1883 z"
       style="font-style:normal;font-variant:normal;font-weight:500;font-stretch:normal;font-size:42.66666794px;line-height:1;font-family:Quicksand;-inkscape-font-specification:'Quicksand Medium';letter-spacing:0px;word-spacing:0px;fill:#ffffff;fill-opacity:1;stroke:none;stroke-width:0.61891001"
       id="path1945"
       inkscape:connector-curvature="0" /><path
       d="m 357.89942,109.52382 q -2.64068,0 -4.62119,1.1223 -1.98051,1.12228 -3.1028,3.06979 -1.08929,1.98051 -1.08929,4.55518 0,2.87174 1.1223,4.88526 1.15529,2.04653 2.97077,3.1028 1.84847,1.08928 3.895,1.08928 1.51839,0 2.93776,-0.56114 1.41937,-0.56115 2.50865,-1.65043 1.08928,-1.05627 1.74945,-2.57467 0.66017,-1.48538 0.69318,-3.33386 0,-0.52814 -0.3961,-0.89123 -0.3961,-0.36309 -0.92424,-0.36309 h -13.03837 l -0.59415,2.27759 h 12.70828 l -0.52814,-0.46212 v 0.72619 q -0.13203,1.35334 -0.92424,2.3106 -0.75919,0.99025 -1.88148,1.51838 -1.08928,0.52814 -2.3106,0.52814 -0.99025,0 -1.98051,-0.36309 -0.95725,-0.33009 -1.74945,-1.12229 -0.7592,-0.75919 -1.25433,-1.98051 -0.46212,-1.22132 -0.46212,-2.93776 0,-1.9145 0.7592,-3.36687 0.79221,-1.45238 2.17856,-2.3106 1.38636,-0.82522 3.23484,-0.82522 1.1553,0 2.01352,0.29708 0.85822,0.29708 1.48538,0.72619 0.62717,0.46212 1.05627,0.92424 0.42912,0.29708 0.82522,0.29708 0.49513,0 0.79221,-0.33009 0.33008,-0.33009 0.33008,-0.7922 0,-0.56115 -0.52814,-0.99026 -0.92424,-1.02327 -2.50865,-1.81547 -1.58441,-0.7592 -3.36687,-0.7592 z"
       style="font-style:normal;font-variant:normal;font-weight:500;font-stretch:normal;font-size:42.66666794px;line-height:1;font-family:Quicksand;-inkscape-font-specification:'Quicksand Medium';letter-spacing:0px;word-spacing:0px;fill:#ffffff;fill-opacity:1;stroke:none;stroke-width:0.61891001"
       id="path1947"
       inkscape:connector-curvature="0" /><path
       d="m 379.66551,111.68188 q 0.40622,0 0.6855,-0.27928 0.27927,-0.27928 0.27927,-0.6855 0,-0.40622 -0.27927,-0.6855 -0.27928,-0.25389 -0.6855,-0.25389 h -9.21615 q -0.457,0 -0.76167,0.25389 -0.27927,0.27928 -0.27927,0.73628 0,0.40622 0.30466,0.73627 l 5.73788,6.27104 q 1.26944,1.37101 1.90417,2.56428 0.6601,1.21867 0.6601,2.15805 0,1.54872 -0.93939,2.46272 -0.91399,0.93939 -2.46271,0.93939 -0.6855,0 -1.371,-0.30467 -0.6855,-0.27928 -1.24405,-0.78705 -0.55856,-0.48239 -0.914,-1.09172 -0.20311,-0.33006 -0.43161,-0.43161 -0.20311,-0.0761 -0.43161,-0.0761 -0.38083,0 -0.6855,0.25389 -0.30466,0.27927 -0.30466,0.63472 0,0.27927 0.15233,0.50778 0.15233,0.25388 0.40622,0.55855 0.53316,0.73627 1.32022,1.32022 0.81244,0.60933 1.75183,0.96478 0.96478,0.35544 1.87877,0.35544 1.62489,0 2.81817,-0.63472 1.21866,-0.63472 1.87877,-1.80261 0.66011,-1.16789 0.66011,-2.74199 0,-1.34561 -0.81244,-2.9705 -0.81244,-1.62488 -2.38656,-3.30054 l -4.44304,-4.92544 -0.25389,0.25389 z"
       style="font-style:normal;font-variant:normal;font-weight:500;font-stretch:normal;font-size:32.81748962px;line-height:1.25;font-family:Quicksand;-inkscape-font-specification:'Quicksand Medium';letter-spacing:0px;word-spacing:0px;fill:#e88617;fill-opacity:1;stroke:none;stroke-width:0.47604078"
       id="path1950"
       inkscape:connector-curvature="0" /><path
       d="m 389.5925,109.52383 q -2.10728,0 -3.52905,1.19327 -1.39639,1.19327 -2.13267,3.27516 -0.71088,2.08188 -0.71088,4.67155 0,2.64044 0.71088,4.69693 0.73628,2.0565 2.13267,3.24977 1.42177,1.19328 3.52905,1.19328 2.10727,0 3.50366,-1.19328 1.42177,-1.19327 2.13266,-3.24977 0.71089,-2.05649 0.71089,-4.69693 0,-2.58967 -0.71089,-4.67155 -0.71089,-2.08189 -2.13266,-3.27516 -1.39639,-1.19327 -3.50366,-1.19327 z m 0,2.05649 q 1.3456,0 2.2596,0.86322 0.93939,0.86323 1.42178,2.43733 0.48238,1.5995 0.48238,3.78294 0,2.20883 -0.48238,3.78293 -0.48239,1.5995 -1.42178,2.43733 -0.914,0.86323 -2.2596,0.86323 -1.34561,0 -2.285,-0.86323 -0.914,-0.83783 -1.42177,-2.43733 -0.48239,-1.5741 -0.48239,-3.78293 0,-2.18344 0.48239,-3.78294 0.50777,-1.5741 1.42177,-2.43733 0.93939,-0.86322 2.285,-0.86322 z"
       style="font-style:normal;font-variant:normal;font-weight:500;font-stretch:normal;font-size:32.81748962px;line-height:1.25;font-family:Quicksand;-inkscape-font-specification:'Quicksand Medium';letter-spacing:0px;word-spacing:0px;fill:#e88617;fill-opacity:1;stroke:none;stroke-width:0.47604078"
       id="path1952"
       inkscape:connector-curvature="0" /><path
       d="m 409.11651,111.68188 q 0.40622,0 0.6855,-0.27928 0.27927,-0.27928 0.27927,-0.6855 0,-0.40622 -0.27927,-0.6855 -0.27928,-0.25389 -0.6855,-0.25389 h -9.21615 q -0.45699,0 -0.76166,0.25389 -0.27928,0.27928 -0.27928,0.73628 0,0.40622 0.30466,0.73627 l 5.73789,6.27104 q 1.26944,1.37101 1.90416,2.56428 0.66011,1.21867 0.66011,2.15805 0,1.54872 -0.93939,2.46272 -0.91399,0.93939 -2.46272,0.93939 -0.68549,0 -1.37099,-0.30467 -0.68551,-0.27928 -1.24406,-0.78705 -0.55855,-0.48239 -0.91399,-1.09172 -0.20312,-0.33006 -0.43162,-0.43161 -0.20311,-0.0761 -0.43161,-0.0761 -0.38083,0 -0.6855,0.25389 -0.30466,0.27927 -0.30466,0.63472 0,0.27927 0.15233,0.50778 0.15233,0.25388 0.40623,0.55855 0.53316,0.73627 1.32022,1.32022 0.81244,0.60933 1.75182,0.96478 0.96478,0.35544 1.87878,0.35544 1.62489,0 2.81816,-0.63472 1.21866,-0.63472 1.87877,-1.80261 0.66011,-1.16789 0.66011,-2.74199 0,-1.34561 -0.81244,-2.9705 -0.81244,-1.62488 -2.38655,-3.30054 l -4.44305,-4.92544 -0.25389,0.25389 z"
       style="font-style:normal;font-variant:normal;font-weight:500;font-stretch:normal;font-size:32.81748962px;line-height:1.25;font-family:Quicksand;-inkscape-font-specification:'Quicksand Medium';letter-spacing:0px;word-spacing:0px;fill:#e88617;fill-opacity:1;stroke:none;stroke-width:0.47604078"
       id="path1954"
       inkscape:connector-curvature="0" /><path
       d="m 423.30883,111.68188 q 0.40622,0 0.6855,-0.27928 0.27927,-0.27928 0.27927,-0.6855 0,-0.40622 -0.27927,-0.6855 -0.27928,-0.25389 -0.6855,-0.25389 h -9.21615 q -0.457,0 -0.76167,0.25389 -0.27927,0.27928 -0.27927,0.73628 0,0.40622 0.30466,0.73627 l 5.73788,6.27104 q 1.26944,1.37101 1.90417,2.56428 0.6601,1.21867 0.6601,2.15805 0,1.54872 -0.93939,2.46272 -0.914,0.93939 -2.46271,0.93939 -0.6855,0 -1.371,-0.30467 -0.6855,-0.27928 -1.24405,-0.78705 -0.55856,-0.48239 -0.914,-1.09172 -0.20311,-0.33006 -0.43161,-0.43161 -0.20311,-0.0761 -0.43161,-0.0761 -0.38083,0 -0.6855,0.25389 -0.30466,0.27927 -0.30466,0.63472 0,0.27927 0.15232,0.50778 0.15234,0.25388 0.40623,0.55855 0.53316,0.73627 1.32022,1.32022 0.81244,0.60933 1.75183,0.96478 0.96477,0.35544 1.87877,0.35544 1.62489,0 2.81817,-0.63472 1.21866,-0.63472 1.87877,-1.80261 0.6601,-1.16789 0.6601,-2.74199 0,-1.34561 -0.81244,-2.9705 -0.81243,-1.62488 -2.38655,-3.30054 l -4.44304,-4.92544 -0.25389,0.25389 z"
       style="font-style:normal;font-variant:normal;font-weight:500;font-stretch:normal;font-size:32.81748962px;line-height:1.25;font-family:Quicksand;-inkscape-font-specification:'Quicksand Medium';letter-spacing:0px;word-spacing:0px;fill:#e88617;fill-opacity:1;stroke:none;stroke-width:0.47604078"
       id="path1956"
       inkscape:connector-curvature="0" /><path
       d="m 190.50566,81.163994 q -0.20537,0 -0.3814,0.176031 -0.16136,0.190699 -0.16136,0.396068 0,0.161361 0.0733,0.264045 0.088,0.102685 0.26404,0.205369 l 5.17824,2.875165 0.044,-0.762799 -5.25158,3.007187 q -0.13202,0.08801 -0.20537,0.1907 -0.0733,0.117354 -0.0733,0.278714 0,0.234708 0.16136,0.410738 0.17603,0.176031 0.36673,0.161362 0.11736,0 0.23471,-0.05868 0.11735,-0.05868 0.24937,-0.132022 l 5.03154,-2.875165 q 0.16136,-0.08801 0.24938,-0.234706 0.10268,-0.146693 0.10268,-0.322723 0,-0.1907 -0.0733,-0.337392 -0.0733,-0.132023 -0.24938,-0.234707 l -5.0902,-2.845826 q -0.11736,-0.05868 -0.23472,-0.117353 -0.11735,-0.044 -0.2347,-0.044 z"
       style="font-style:normal;font-variant:normal;font-weight:normal;font-stretch:normal;font-size:18.96134186px;line-height:1.25;font-family:Z003;-inkscape-font-specification:Z003;letter-spacing:0px;word-spacing:0px;fill:#ffffff;fill-opacity:1;stroke:none;stroke-width:1.22243369"
       id="path1959"
       inkscape:connector-curvature="0" /><path
       d="m 198.251,81.163994 q -0.20537,0 -0.3814,0.176031 -0.16136,0.190699 -0.16136,0.396068 0,0.161361 0.0733,0.264045 0.088,0.102685 0.26404,0.205369 l 5.17823,2.875165 0.044,-0.762799 -5.25158,3.007187 q -0.13202,0.08801 -0.20537,0.1907 -0.0733,0.117354 -0.0733,0.278714 0,0.234708 0.16137,0.410738 0.17603,0.176031 0.36673,0.161362 0.11735,0 0.2347,-0.05868 0.11736,-0.05868 0.24939,-0.132022 l 5.03153,-2.875165 q 0.16136,-0.08801 0.24938,-0.234706 0.10268,-0.146693 0.10268,-0.322723 0,-0.1907 -0.0733,-0.337392 -0.0733,-0.132023 -0.24937,-0.234707 l -5.09022,-2.845826 q -0.11735,-0.05868 -0.23471,-0.117353 -0.11735,-0.044 -0.2347,-0.044 z"
       style="font-style:normal;font-variant:normal;font-weight:normal;font-stretch:normal;font-size:18.96134186px;line-height:1.25;font-family:Z003;-inkscape-font-specification:Z003;letter-spacing:0px;word-spacing:0px;fill:#ffffff;fill-opacity:1;stroke:none;stroke-width:1.22243369"
       id="path1961"
       inkscape:connector-curvature="0" /><path
       d="m 214.15241,90.09754 q 1.07085,0 1.87766,-0.410738 0.82147,-0.396069 1.36423,-1.11486 0.54277,-0.71879 0.80681,-1.65762 0.27872,-0.92416 0.27872,-1.951004 0,-1.408244 -0.48408,-2.58178 -0.48409,-1.158867 -1.43759,-1.862989 -0.9535,-0.689452 -2.40575,-0.689452 h -3.6673 q -0.24937,0 -0.42541,0.17603 -0.16136,0.17603 -0.16136,0.425407 v 9.080237 q 0,0.249377 0.16136,0.410738 0.17604,0.176031 0.42541,0.176031 z m -0.14669,-9.124246 q 1.12952,0 1.83365,0.542761 0.71879,0.542761 1.04151,1.452251 0.33739,0.909491 0.33739,1.995012 0,0.792137 -0.19069,1.510928 -0.17604,0.733461 -0.57211,1.29089 -0.38139,0.55743 -0.9975,0.880152 -0.60144,0.322723 -1.45225,0.322723 h -3.00718 l 0.11735,0.117353 v -8.258762 l -0.088,0.146692 z"
       style="font-style:normal;font-variant:normal;font-weight:normal;font-stretch:normal;font-size:18.96134186px;line-height:1.25;font-family:Z003;-inkscape-font-specification:Z003;letter-spacing:0px;word-spacing:0px;fill:#ffffff;fill-opacity:1;stroke:none;stroke-width:1.22243369"
       id="path1963"
       inkscape:connector-curvature="0" /><path
       d="m 225.88776,87.413075 q 0.26404,0 0.42541,-0.17603 0.16136,-0.161361 0.16136,-0.410738 v -4.004693 q 0,-1.481589 -0.83614,-2.303065 -0.82148,-0.806806 -2.30307,-0.806806 -1.46692,0 -2.30306,0.806806 -0.82148,0.821476 -0.82148,2.303065 v 4.004693 q 0,0.249377 0.16136,0.410738 0.17603,0.17603 0.4254,0.17603 0.26405,0 0.42541,-0.17603 0.16137,-0.161361 0.16137,-0.410738 v -4.004693 q 0,-0.997506 0.51341,-1.510928 0.51343,-0.513422 1.43759,-0.513422 0.95349,0 1.45225,0.513422 0.51343,0.513422 0.51343,1.510928 v 4.004693 q 0,0.249377 0.16135,0.410738 0.17604,0.17603 0.42541,0.17603 z"
       style="font-style:normal;font-variant:normal;font-weight:normal;font-stretch:normal;font-size:18.96134186px;line-height:1.25;font-family:Z003;-inkscape-font-specification:Z003;letter-spacing:0px;word-spacing:0px;fill:#ffffff;fill-opacity:1;stroke:none;stroke-width:1.22243369"
       id="path1965"
       inkscape:connector-curvature="0" /><path
       d="m 232.3862,87.603775 q 0.99751,0 1.78965,-0.513422 0.79213,-0.498753 1.24688,-1.378905 0.46942,-0.880153 0.46942,-2.03902 0,-1.158867 -0.46942,-2.053689 -0.45475,-0.894821 -1.24688,-1.422913 -0.77747,-0.513422 -1.76031,-0.513422 -0.54276,0 -1.02685,0.161362 -0.46941,0.17603 -0.86548,0.454745 -0.38139,0.293384 -0.64544,0.630775 -0.26405,0.352062 -0.3814,0.689453 l 0.32272,0.205369 v -1.46692 q 0,-0.249377 -0.16136,-0.425407 -0.16136,-0.176031 -0.4254,-0.176031 -0.24938,0 -0.42541,0.161362 -0.16137,0.17603 -0.16137,0.440076 v 9.725683 q 0,0.249376 0.16137,0.425407 0.17603,0.17603 0.42541,0.17603 0.26404,0 0.4254,-0.17603 0.16136,-0.176031 0.16136,-0.425407 v -4.518116 l -0.22004,0.117354 q 0.10269,0.36673 0.35206,0.704121 0.26405,0.352062 0.63078,0.616108 0.3814,0.278714 0.83615,0.440076 0.46941,0.161361 0.96816,0.161361 z m -0.13202,-1.085521 q -0.73346,0 -1.30556,-0.36673 -0.55743,-0.366731 -0.88015,-1.012176 -0.30806,-0.645445 -0.30806,-1.46692 0,-0.821476 0.30806,-1.481589 0.32272,-0.660115 0.88015,-1.041515 0.5721,-0.381398 1.30556,-0.381398 0.73346,0 1.29089,0.381398 0.55743,0.3814 0.88015,1.041515 0.32272,0.660113 0.32272,1.481589 0,0.821475 -0.32272,1.46692 -0.32272,0.645445 -0.88015,1.012176 -0.55743,0.36673 -1.29089,0.36673 z"
       style="font-style:normal;font-variant:normal;font-weight:normal;font-stretch:normal;font-size:18.96134186px;line-height:1.25;font-family:Z003;-inkscape-font-specification:Z003;letter-spacing:0px;word-spacing:0px;fill:#ffffff;fill-opacity:1;stroke:none;stroke-width:1.22243369"
       id="path1967"
       inkscape:connector-curvature="0" /><path
       d="m 238.94331,80.430534 q 0,-0.249377 -0.17602,-0.425407 -0.17604,-0.17603 -0.42541,-0.17603 -0.24938,0 -0.41074,0.17603 -0.16137,0.17603 -0.16137,0.425407 v 9.667006 q 0,0.249376 0.16137,0.410738 0.17602,0.17603 0.42541,0.17603 0.26404,0 0.4254,-0.17603 0.16136,-0.161362 0.16136,-0.410738 z"
       style="font-style:normal;font-variant:normal;font-weight:normal;font-stretch:normal;font-size:18.96134186px;line-height:1.25;font-family:Z003;-inkscape-font-specification:Z003;letter-spacing:0px;word-spacing:0px;fill:#ffffff;fill-opacity:1;stroke:none;stroke-width:1.22243369"
       id="path1969"
       inkscape:connector-curvature="0" /><path
       d="m 242.34654,80.430534 q 0,-0.249377 -0.17603,-0.425407 -0.16136,-0.17603 -0.41074,-0.17603 -0.26404,0 -0.42541,0.17603 -0.16136,0.17603 -0.16136,0.425407 v 6.513126 q 0,0.249377 0.16136,0.410738 0.17604,0.176031 0.42541,0.176031 0.24938,0 0.41074,-0.176031 0.17603,-0.161361 0.17603,-0.410738 z m -0.58677,8.082732 q -0.36673,0 -0.54276,0.146691 -0.17603,0.146693 -0.17603,0.454746 v 0.205369 q 0,0.308053 0.1907,0.454745 0.1907,0.146692 0.54276,0.146692 0.35206,0 0.52809,-0.146692 0.17603,-0.146692 0.17603,-0.454745 v -0.205369 q 0,-0.308053 -0.1907,-0.454746 -0.17602,-0.146691 -0.52809,-0.146691 z"
       style="font-style:normal;font-variant:normal;font-weight:normal;font-stretch:normal;font-size:18.96134186px;line-height:1.25;font-family:Z003;-inkscape-font-specification:Z003;letter-spacing:0px;word-spacing:0px;fill:#ffffff;fill-opacity:1;stroke:none;stroke-width:1.22243369"
       id="path1971"
       inkscape:connector-curvature="0" /><path
       d="m 248.22888,87.603775 q 0.9975,0 1.5696,-0.410738 0.5721,-0.410737 0.80681,-1.10019 0.24938,-0.689453 0.24938,-1.540267 v -4.122046 q 0,-0.249377 -0.17604,-0.425407 -0.16135,-0.17603 -0.41074,-0.17603 -0.24937,0 -0.4254,0.17603 -0.16136,0.17603 -0.16136,0.425407 v 4.092708 q 0,0.55743 -0.17603,0.997506 -0.16136,0.454745 -0.55743,0.718791 -0.3814,0.278715 -1.05618,0.278715 -0.61611,0 -1.12954,-0.278715 -0.51341,-0.264046 -0.82147,-0.718791 -0.30805,-0.440076 -0.30805,-0.997506 v -4.092708 q 0,-0.249377 -0.17604,-0.425407 -0.16135,-0.17603 -0.41073,-0.17603 -0.24938,0 -0.4254,0.17603 -0.16137,0.17603 -0.16137,0.425407 v 6.395773 q 0,0.249377 0.16137,0.410738 0.17602,0.17603 0.4254,0.17603 0.26405,0 0.4254,-0.17603 0.16137,-0.161361 0.16137,-0.410738 v -1.041514 l -0.29339,-0.322722 q 0.0733,0.381399 0.33739,0.762799 0.26405,0.396068 0.66012,0.704121 0.39607,0.308054 0.88015,0.484084 0.48409,0.1907 1.01218,0.1907 z"
       style="font-style:normal;font-variant:normal;font-weight:normal;font-stretch:normal;font-size:18.96134186px;line-height:1.25;font-family:Z003;-inkscape-font-specification:Z003;letter-spacing:0px;word-spacing:0px;fill:#ffffff;fill-opacity:1;stroke:none;stroke-width:1.22243369"
       id="path1973"
       inkscape:connector-curvature="0" /><path
       d="m 254.5513,79.799758 q 0,-0.425407 -0.24937,-0.836145 -0.23472,-0.425406 -0.60145,-0.689453 -0.36672,-0.278714 -0.74813,-0.278714 -0.13202,0 -0.26404,0.102684 -0.13202,0.08801 -0.13202,0.322723 0,0.249376 0.16136,0.293384 0.16136,0.04401 0.35206,0.132023 0.22004,0.117353 0.33739,0.293384 0.13203,0.161361 0.13203,0.381399 0,0.176031 -0.13203,0.293384 -0.11735,0.102685 -0.29338,0.102685 -0.10269,0 -0.22004,-0.02934 -0.10268,-0.02934 -0.17603,-0.08801 -0.10269,0.07335 -0.17604,0.176031 -0.0733,0.102684 -0.0733,0.264045 0.0147,0.322723 0.32273,0.542761 0.30805,0.234707 0.70411,0.234707 0.46942,0 0.7628,-0.352061 0.29339,-0.352061 0.29339,-0.865483 z"
       style="font-style:normal;font-variant:normal;font-weight:normal;font-stretch:normal;font-size:18.96134186px;line-height:1.25;font-family:Z003;-inkscape-font-specification:Z003;letter-spacing:0px;word-spacing:0px;fill:#ffffff;fill-opacity:1;stroke:none;stroke-width:1.22243369"
       id="path1975"
       inkscape:connector-curvature="0" /><path
       d="m 261.72451,80.430534 q 0,-0.249377 -0.1907,-0.425407 -0.17602,-0.17603 -0.4254,-0.17603 -0.27872,0 -0.44007,0.17603 -0.16137,0.17603 -0.16137,0.425407 v 9.065568 q 0,0.264046 0.17603,0.425407 0.17603,0.176031 0.44008,0.176031 0.24937,0 0.42541,-0.176031 0.17602,-0.161361 0.17602,-0.425407 z"
       style="font-style:normal;font-variant:normal;font-weight:normal;font-stretch:normal;font-size:18.96134186px;line-height:1.25;font-family:Z003;-inkscape-font-specification:Z003;letter-spacing:0px;word-spacing:0px;fill:#ffffff;fill-opacity:1;stroke:none;stroke-width:1.22243369"
       id="path1977"
       inkscape:connector-curvature="0" /><path
       d="m 264.68768,79.829097 q -0.24938,0 -0.42541,0.17603 -0.16136,0.17603 -0.16136,0.425407 v 6.395773 q 0,0.249377 0.16136,0.410738 0.17603,0.17603 0.42541,0.17603 0.26404,0 0.4254,-0.17603 0.16136,-0.161361 0.16136,-0.410738 v -1.936335 l -0.17602,0.308053 q 0.088,0.454745 0.30805,0.880152 0.23471,0.440077 0.58677,0.777468 0.35206,0.352062 0.8068,0.542761 0.45475,0.205369 0.9975,0.205369 0.32273,0 0.58678,-0.161361 0.27871,-0.146692 0.27871,-0.425407 0,-0.308054 -0.16136,-0.454745 -0.16136,-0.146693 -0.36673,-0.146693 -0.1907,0 -0.36673,0.07335 -0.17603,0.08801 -0.44008,0.08801 -0.36673,0 -0.73346,-0.205369 -0.35206,-0.190699 -0.66011,-0.55743 -0.29338,-0.36673 -0.48408,-0.836144 -0.17604,-0.454746 -0.17604,-0.982837 v -3.564617 q 0,-0.249376 -0.17602,-0.425407 -0.16137,-0.17603 -0.41074,-0.17603 z"
       style="font-style:normal;font-variant:normal;font-weight:normal;font-stretch:normal;font-size:18.96134186px;line-height:1.25;font-family:Z003;-inkscape-font-specification:Z003;letter-spacing:0px;word-spacing:0px;fill:#ffffff;fill-opacity:1;stroke:none;stroke-width:1.22243369"
       id="path1979"
       inkscape:connector-curvature="0" /><path
       d="m 273.16644,79.682404 q -1.17354,0 -2.05369,0.498753 -0.88015,0.498753 -1.3789,1.364237 -0.48409,0.880151 -0.48409,2.02435 0,1.276221 0.49876,2.171042 0.51342,0.909491 1.32023,1.378905 0.82147,0.484084 1.73096,0.484084 0.67479,0 1.30556,-0.249377 0.63077,-0.249376 1.11486,-0.73346 0.48408,-0.469414 0.77747,-1.144198 0.29339,-0.660114 0.30805,-1.481589 0,-0.234708 -0.17603,-0.396069 -0.17603,-0.161361 -0.41074,-0.161361 h -5.79434 l -0.26404,1.012175 h 5.64765 l -0.23472,-0.205369 v 0.322722 q -0.0586,0.601438 -0.41073,1.026845 -0.33739,0.440076 -0.83614,0.674783 -0.48408,0.234707 -1.02685,0.234707 -0.44007,0 -0.88015,-0.161361 -0.42541,-0.146692 -0.77747,-0.498753 -0.33739,-0.337391 -0.55743,-0.880152 -0.20537,-0.54276 -0.20537,-1.305559 0,-0.850814 0.3374,-1.496259 0.35206,-0.645445 0.96816,-1.026845 0.61611,-0.366729 1.43759,-0.366729 0.51341,0 0.89482,0.132023 0.38139,0.132022 0.66011,0.322722 0.27871,0.205369 0.46941,0.410738 0.1907,0.132023 0.36673,0.132023 0.22004,0 0.35207,-0.146693 0.14669,-0.146692 0.14669,-0.352061 0,-0.249376 -0.23471,-0.440076 -0.41074,-0.454745 -1.11486,-0.806806 -0.70412,-0.337392 -1.49626,-0.337392 z"
       style="font-style:normal;font-variant:normal;font-weight:normal;font-stretch:normal;font-size:18.96134186px;line-height:1.25;font-family:Z003;-inkscape-font-specification:Z003;letter-spacing:0px;word-spacing:0px;fill:#ffffff;fill-opacity:1;stroke:none;stroke-width:1.22243369"
       id="path1981"
       inkscape:connector-curvature="0" /><path
       d="m 279.35685,80.430534 q 0,-0.249377 -0.17603,-0.425407 -0.17603,-0.17603 -0.42541,-0.17603 -0.24938,0 -0.41073,0.17603 -0.16137,0.17603 -0.16137,0.425407 v 9.667006 q 0,0.249376 0.16137,0.410738 0.17602,0.17603 0.4254,0.17603 0.26405,0 0.42541,-0.17603 0.16136,-0.161362 0.16136,-0.410738 z"
       style="font-style:normal;font-variant:normal;font-weight:normal;font-stretch:normal;font-size:18.96134186px;line-height:1.25;font-family:Z003;-inkscape-font-specification:Z003;letter-spacing:0px;word-spacing:0px;fill:#ffffff;fill-opacity:1;stroke:none;stroke-width:1.22243369"
       id="path1983"
       inkscape:connector-curvature="0" /><path
       d="m 287.87963,87.486421 q 0.24937,0 0.41074,-0.17603 0.17602,-0.161362 0.17602,-0.410738 v -6.469119 q 0,-0.249377 -0.17602,-0.425407 -0.16137,-0.17603 -0.41074,-0.17603 -0.26405,0 -0.42541,0.17603 -0.16136,0.17603 -0.16136,0.425407 v 1.393574 l 0.27871,0.02934 q 0,-0.322722 -0.22004,-0.704122 -0.22003,-0.381399 -0.60143,-0.71879 -0.3814,-0.322723 -0.9095,-0.542761 -0.51341,-0.205369 -1.11485,-0.205369 -0.99751,0 -1.78964,0.513422 -0.79214,0.528092 -1.26156,1.422913 -0.45474,0.894821 -0.45474,2.03902 0,1.158867 0.45474,2.039019 0.46942,0.894821 1.26156,1.393574 0.79213,0.513423 1.7603,0.513423 0.63078,0 1.17354,-0.205369 0.54276,-0.205369 0.93882,-0.55743 0.41074,-0.352061 0.63078,-0.777468 0.23471,-0.425407 0.23471,-0.850814 l -0.3814,0.08801 v 1.598943 q 0,0.249377 0.16136,0.410738 0.16136,0.176031 0.42541,0.176031 z m -3.02186,-6.718495 q 0.73346,0 1.29089,0.381398 0.5721,0.3814 0.88015,1.026845 0.32272,0.660115 0.32272,1.48159 0,0.806806 -0.32272,1.452251 -0.30805,0.660114 -0.88015,1.026845 -0.55743,0.381399 -1.29089,0.381399 -0.71879,0 -1.29089,-0.36673 -0.55743,-0.366731 -0.88015,-1.012176 -0.32272,-0.645445 -0.32272,-1.481589 0,-0.821475 0.30805,-1.48159 0.32272,-0.645445 0.88015,-1.026845 0.5721,-0.381398 1.30556,-0.381398 z"
       style="font-style:normal;font-variant:normal;font-weight:normal;font-stretch:normal;font-size:18.96134186px;line-height:1.25;font-family:Z003;-inkscape-font-specification:Z003;letter-spacing:0px;word-spacing:0px;fill:#ffffff;fill-opacity:1;stroke:none;stroke-width:1.22243369"
       id="path1985"
       inkscape:connector-curvature="0" /><path
       d="m 294.4074,87.603775 q 0.99751,0 1.5696,-0.410738 0.5721,-0.410737 0.80681,-1.10019 0.24938,-0.689453 0.24938,-1.540267 v -4.122046 q 0,-0.249377 -0.17603,-0.425407 -0.16136,-0.17603 -0.41074,-0.17603 -0.24938,0 -0.4254,0.17603 -0.16137,0.17603 -0.16137,0.425407 v 4.092708 q 0,0.55743 -0.17603,0.997506 -0.16136,0.454745 -0.55743,0.718791 -0.3814,0.278715 -1.05618,0.278715 -0.61611,0 -1.12953,-0.278715 -0.51342,-0.264046 -0.82148,-0.718791 -0.30805,-0.440076 -0.30805,-0.997506 v -4.092708 q 0,-0.249377 -0.17603,-0.425407 -0.16136,-0.17603 -0.41074,-0.17603 -0.24938,0 -0.4254,0.17603 -0.16137,0.17603 -0.16137,0.425407 v 6.395773 q 0,0.249377 0.16137,0.410738 0.17602,0.17603 0.4254,0.17603 0.26405,0 0.42541,-0.17603 0.16136,-0.161361 0.16136,-0.410738 v -1.041514 l -0.29339,-0.322722 q 0.0733,0.381399 0.33739,0.762799 0.26405,0.396068 0.66013,0.704121 0.39606,0.308054 0.88015,0.484084 0.48408,0.1907 1.01217,0.1907 z"
       style="font-style:normal;font-variant:normal;font-weight:normal;font-stretch:normal;font-size:18.96134186px;line-height:1.25;font-family:Z003;-inkscape-font-specification:Z003;letter-spacing:0px;word-spacing:0px;fill:#ffffff;fill-opacity:1;stroke:none;stroke-width:1.22243369"
       id="path1987"
       inkscape:connector-curvature="0" /><path
       d="m 305.45331,90.684308 q 0.24938,0 0.41074,-0.17603 0.17603,-0.161362 0.17603,-0.410738 v -9.667006 q 0,-0.249377 -0.17603,-0.425407 -0.16136,-0.17603 -0.41074,-0.17603 -0.26404,0 -0.42541,0.17603 -0.16135,0.17603 -0.16135,0.425407 v 1.393574 l 0.27871,0.102685 q 0,-0.352062 -0.22004,-0.74813 -0.22004,-0.381399 -0.60143,-0.718791 -0.38141,-0.337392 -0.9095,-0.55743 -0.51342,-0.220038 -1.11486,-0.220038 -0.98283,0 -1.78964,0.513422 -0.79213,0.513422 -1.26155,1.408244 -0.45475,0.894822 -0.45475,2.03902 0,1.158867 0.45475,2.053688 0.46942,0.894822 1.26155,1.393575 0.79214,0.513422 1.76031,0.513422 0.61611,0 1.15887,-0.205369 0.54275,-0.205369 0.93882,-0.55743 0.41074,-0.352061 0.64545,-0.777468 0.2347,-0.425407 0.2347,-0.850814 l -0.38139,0.08802 v 4.79683 q 0,0.249376 0.16135,0.410738 0.16137,0.17603 0.42541,0.17603 z m -3.02186,-9.916382 q 0.73347,0 1.29089,0.366729 0.5721,0.3814 0.88016,1.026845 0.32272,0.660114 0.32272,1.48159 0,0.836144 -0.32272,1.481589 -0.30806,0.645445 -0.88016,1.012176 -0.55742,0.381399 -1.29089,0.381399 -0.71878,0 -1.29088,-0.381399 -0.55744,-0.366731 -0.88015,-1.012176 -0.32273,-0.645445 -0.32273,-1.481589 0,-0.806806 0.32273,-1.466921 0.32271,-0.645445 0.88015,-1.026845 0.5721,-0.381398 1.29088,-0.381398 z"
       style="font-style:normal;font-variant:normal;font-weight:normal;font-stretch:normal;font-size:18.96134186px;line-height:1.25;font-family:Z003;-inkscape-font-specification:Z003;letter-spacing:0px;word-spacing:0px;fill:#ffffff;fill-opacity:1;stroke:none;stroke-width:1.22243369"
       id="path1989"
       inkscape:connector-curvature="0" /><path
       d="m 315.95642,77.907431 q -0.19069,0 -0.36672,0.161361 -0.16137,0.146692 -0.16137,0.36673 0,0.132023 0.0587,0.264045 l 6.24908,12.483494 q 0.10268,0.205369 0.23471,0.293384 0.13202,0.08801 0.29338,0.08801 0.17604,0 0.33739,-0.146692 0.17604,-0.132022 0.17604,-0.36673 0,-0.146692 -0.0733,-0.293384 l -6.23442,-12.483494 q -0.088,-0.190699 -0.22003,-0.278714 -0.13202,-0.08801 -0.29339,-0.08801 z"
       style="font-style:normal;font-variant:normal;font-weight:normal;font-stretch:normal;font-size:18.96134186px;line-height:1.25;font-family:Z003;-inkscape-font-specification:Z003;letter-spacing:0px;word-spacing:0px;fill:#ffffff;fill-opacity:1;stroke:none;stroke-width:1.22243369"
       id="path1991"
       inkscape:connector-curvature="0" /><path
       d="m 335.43709,79.682404 q -1.08552,0 -1.907,0.322723 -0.82148,0.322722 -1.58427,1.026844 -0.10269,0.102684 -0.17604,0.220038 -0.0586,0.132023 -0.0586,0.278715 0,0.234708 0.16136,0.410738 0.17603,0.190699 0.42541,0.190699 0.20537,0 0.36672,-0.16136 0.57211,-0.55743 1.23222,-0.850814 0.67478,-0.293385 1.51092,-0.293385 0.64545,0 1.15887,0.205369 0.5281,0.205369 0.83615,0.572099 0.30806,0.366731 0.30806,0.850814 -0.0147,0.586769 -0.35207,0.968167 -0.32272,0.3814 -0.90949,0.630776 -0.5721,0.264046 -1.33489,0.440076 -0.67479,0.161362 -1.24689,0.396069 -0.55743,0.234707 -0.96816,0.572099 -0.41074,0.352061 -0.64545,0.836144 -0.22004,0.498754 -0.22004,1.158867 0,0.836146 0.44008,1.466922 0.44008,0.630775 1.21754,0.968167 0.77747,0.35206 1.78964,0.35206 0.89482,0 1.68697,-0.293383 0.8068,-0.293384 1.29088,-0.806806 0.29339,-0.278716 0.29339,-0.542761 0,-0.220038 -0.19071,-0.410738 -0.17602,-0.176031 -0.41073,-0.176031 -0.16136,0 -0.29338,0.117354 -0.24938,0.278715 -0.63078,0.498753 -0.3814,0.220038 -0.83615,0.352061 -0.45474,0.132023 -0.90949,0.132023 -0.67478,0 -1.1882,-0.205369 -0.51342,-0.190699 -0.80681,-0.55743 -0.27872,-0.352061 -0.27872,-0.850814 0,-0.55743 0.32273,-0.924159 0.32272,-0.352061 0.86548,-0.586769 0.54276,-0.220038 1.20288,-0.396068 0.71879,-0.176031 1.32022,-0.410738 0.61611,-0.220038 1.05619,-0.55743 0.44007,-0.337391 0.67478,-0.865483 0.24938,-0.513422 0.24938,-1.27622 0,-0.806807 -0.45475,-1.437583 -0.45474,-0.630776 -1.24688,-0.997505 -0.77747,-0.352061 -1.7603,-0.366731 z"
       style="font-style:normal;font-variant:normal;font-weight:normal;font-stretch:normal;font-size:18.96134186px;line-height:1.25;font-family:Z003;-inkscape-font-specification:Z003;letter-spacing:0px;word-spacing:0px;fill:#e88617;fill-opacity:1;stroke:none;stroke-width:1.22243369"
       id="path1993"
       inkscape:connector-curvature="0" /><path
       d="m 344.16526,79.682404 q -1.17354,0 -2.05369,0.498753 -0.88015,0.498753 -1.3789,1.364237 -0.48409,0.880151 -0.48409,2.02435 0,1.276221 0.49875,2.171042 0.51342,0.909491 1.32023,1.378905 0.82147,0.484084 1.73097,0.484084 0.67478,0 1.30556,-0.249377 0.63077,-0.249376 1.11486,-0.73346 0.48408,-0.469414 0.77746,-1.144198 0.29339,-0.660114 0.30806,-1.481589 0,-0.234708 -0.17603,-0.396069 -0.17604,-0.161361 -0.41074,-0.161361 h -5.79434 l -0.26404,1.012175 h 5.64764 l -0.23471,-0.205369 v 0.322722 q -0.0586,0.601438 -0.41073,1.026845 -0.33739,0.440076 -0.83615,0.674783 -0.48408,0.234707 -1.02684,0.234707 -0.44008,0 -0.88015,-0.161361 -0.42541,-0.146692 -0.77748,-0.498753 -0.33739,-0.337391 -0.55743,-0.880152 -0.20537,-0.54276 -0.20537,-1.305559 0,-0.850814 0.3374,-1.496259 0.35206,-0.645445 0.96816,-1.026845 0.61611,-0.366729 1.43759,-0.366729 0.51342,0 0.89482,0.132023 0.3814,0.132022 0.66012,0.322722 0.27871,0.205369 0.46941,0.410738 0.1907,0.132023 0.36673,0.132023 0.22003,0 0.35206,-0.146693 0.14669,-0.146692 0.14669,-0.352061 0,-0.249376 -0.2347,-0.440076 -0.41074,-0.454745 -1.11486,-0.806806 -0.70413,-0.337392 -1.49626,-0.337392 z"
       style="font-style:normal;font-variant:normal;font-weight:normal;font-stretch:normal;font-size:18.96134186px;line-height:1.25;font-family:Z003;-inkscape-font-specification:Z003;letter-spacing:0px;word-spacing:0px;fill:#e88617;fill-opacity:1;stroke:none;stroke-width:1.22243369"
       id="path1995"
       inkscape:connector-curvature="0" /><path
       d="m 352.80542,87.530429 q 0.99751,0 1.78965,-0.498753 0.79213,-0.498753 1.24688,-1.378906 0.46942,-0.880152 0.46942,-2.02435 0,-1.129528 -0.46942,-2.02435 -0.45475,-0.880152 -1.24688,-1.393574 -0.77747,-0.498753 -1.76031,-0.498753 -0.54276,0 -1.02685,0.161361 -0.46941,0.176031 -0.86548,0.440076 -0.3814,0.278715 -0.64545,0.616106 -0.26404,0.352062 -0.38139,0.689453 l 0.32272,0.205369 v -4.327415 q 0,-0.249377 -0.16136,-0.425407 -0.16136,-0.176031 -0.4254,-0.176031 -0.24939,0 -0.42541,0.176031 -0.16137,0.161361 -0.16137,0.425407 v 9.373622 q 0,0.249376 0.16137,0.410737 0.17602,0.17603 0.42541,0.17603 0.26404,0 0.4254,-0.17603 0.16136,-0.161361 0.16136,-0.410737 v -1.30556 l -0.22004,0.117354 q 0.10269,0.36673 0.35206,0.704121 0.26405,0.337392 0.63078,0.586769 0.3814,0.264046 0.83615,0.410738 0.46941,0.146692 0.96816,0.146692 z m -0.13202,-1.085521 q -0.73346,0 -1.30556,-0.366731 -0.55743,-0.366729 -0.88015,-0.997505 -0.30806,-0.630776 -0.30806,-1.452252 0,-0.806806 0.30806,-1.452251 0.32272,-0.645445 0.88015,-1.012175 0.5721,-0.36673 1.30556,-0.36673 0.73346,0 1.29089,0.36673 0.55743,0.36673 0.88015,1.012175 0.32272,0.645445 0.32272,1.452251 0,0.821476 -0.32272,1.452252 -0.32272,0.630776 -0.88015,0.997505 -0.55743,0.366731 -1.29089,0.366731 z"
       style="font-style:normal;font-variant:normal;font-weight:normal;font-stretch:normal;font-size:18.96134186px;line-height:1.25;font-family:Z003;-inkscape-font-specification:Z003;letter-spacing:0px;word-spacing:0px;fill:#e88617;fill-opacity:1;stroke:none;stroke-width:1.22243369"
       id="path1997"
       inkscape:connector-curvature="0" /><path
       d="m 357.77825,87.369067 h 3.44727 q 0.23471,0 0.38139,-0.16136 0.16137,-0.161362 0.16137,-0.3814 0,-0.234707 -0.16137,-0.396069 -0.14668,-0.146692 -0.38139,-0.146692 h -3.44727 q -0.22004,0 -0.38139,0.161362 -0.16137,0.161361 -0.16137,0.396068 0,0.220038 0.16137,0.366731 0.16135,0.16136 0.38139,0.16136 z m 1.54027,1.995013 q 0.24938,0 0.41074,-0.176031 0.16136,-0.161361 0.16136,-0.410738 v -7.085226 q 0,-0.35206 0.10269,-0.528091 0.10267,-0.17603 0.26404,-0.249376 0.17603,-0.05867 0.33739,-0.05867 0.14669,0 0.24938,0.044 0.11735,0.05868 0.26405,0.05868 0.14669,0 0.26404,-0.146692 0.13202,-0.132024 0.13202,-0.352061 0,-0.264046 -0.30805,-0.454745 -0.30805,-0.176031 -0.68946,-0.176031 -0.20537,0 -0.51341,0.02934 -0.29339,0.02934 -0.58678,0.1907 -0.29338,0.161361 -0.49874,0.528091 -0.19071,0.381399 -0.19071,1.056183 v 7.143902 q 0,0.249377 0.17603,0.410738 0.17603,0.176031 0.42541,0.176031 z"
       style="font-style:normal;font-variant:normal;font-weight:normal;font-stretch:normal;font-size:18.96134186px;line-height:1.25;font-family:Z003;-inkscape-font-specification:Z003;letter-spacing:0px;word-spacing:0px;fill:#e88617;fill-opacity:1;stroke:none;stroke-width:1.22243369"
       id="path1999"
       inkscape:connector-curvature="0" /><path
       d="m 363.74861,79.843766 q -0.30806,0 -0.48408,0.17603 -0.16137,0.17603 -0.16137,0.484083 v 0.293385 q 0,0.322723 0.16137,0.498753 0.17602,0.17603 0.48408,0.17603 h 0.11735 q 0.32272,0 0.48409,-0.17603 0.16135,-0.17603 0.16135,-0.498753 v -0.293385 q 0,-0.308053 -0.16135,-0.484083 -0.16137,-0.17603 -0.48409,-0.17603 z"
       style="font-style:normal;font-variant:normal;font-weight:normal;font-stretch:normal;font-size:18.96134186px;line-height:1.25;font-family:Z003;-inkscape-font-specification:Z003;letter-spacing:0px;word-spacing:0px;fill:#e88617;fill-opacity:1;stroke:none;stroke-width:1.22243369"
       id="path2001"
       inkscape:connector-curvature="0" /><path
       d="m 372.71146,79.829097 q -0.26404,0 -0.44008,0.17603 -0.17602,0.17603 -0.17602,0.425407 v 8.346777 l 0.17602,-0.205369 -1.65762,-1.144197 q -0.14668,-0.102685 -0.33739,-0.102685 -0.24937,0 -0.4254,0.17603 -0.17604,0.1907 -0.17604,0.425407 0,0.322723 0.30806,0.513422 l 2.33241,1.540267 q 0.11735,0.07335 0.2347,0.102685 0.11735,0.02934 0.23471,0.01467 0.26404,0 0.41074,-0.17603 0.16136,-0.161362 0.16136,-0.410739 v -9.080237 q 0,-0.249376 -0.19071,-0.425407 -0.17602,-0.17603 -0.45474,-0.176029 z"
       style="font-style:normal;font-variant:normal;font-weight:normal;font-stretch:normal;font-size:18.96134186px;line-height:1.25;font-family:Z003;-inkscape-font-specification:Z003;letter-spacing:0px;word-spacing:0px;fill:#e88617;fill-opacity:1;stroke:none;stroke-width:1.22243369"
       id="path2003"
       inkscape:connector-curvature="0" /><path
       d="m 381.73302,80.929286 q 0.2347,0 0.39606,-0.16136 0.16137,-0.161362 0.16137,-0.396069 0,-0.234707 -0.16137,-0.396069 -0.16136,-0.146691 -0.39606,-0.146691 h -5.32493 q -0.26404,0 -0.44007,0.146691 -0.16136,0.161362 -0.16136,0.425407 0,0.234707 0.17602,0.425407 l 3.31525,3.623294 q 0.73345,0.792137 1.10019,1.48159 0.3814,0.704121 0.3814,1.246882 0,0.894822 -0.54277,1.422913 -0.52809,0.542761 -1.42291,0.542761 -0.39607,0 -0.79213,-0.176031 -0.39607,-0.161361 -0.7188,-0.454745 -0.32272,-0.278715 -0.52809,-0.630777 -0.11735,-0.190699 -0.24937,-0.249375 -0.11736,-0.044 -0.24938,-0.044 -0.22004,0 -0.39607,0.146692 -0.17603,0.161361 -0.17603,0.36673 0,0.161361 0.088,0.293384 0.088,0.146692 0.23472,0.322723 0.30804,0.425407 0.7628,0.762798 0.46941,0.352061 1.01217,0.55743 0.55743,0.205369 1.08552,0.205369 0.93883,0 1.62828,-0.36673 0.70412,-0.366731 1.08552,-1.041514 0.3814,-0.674783 0.3814,-1.584274 0,-0.777467 -0.46941,-1.716297 -0.46942,-0.938829 -1.37891,-1.906997 l -2.56711,-2.845825 -0.14669,0.146692 z"
       style="font-style:normal;font-variant:normal;font-weight:normal;font-stretch:normal;font-size:18.96134186px;line-height:1.25;font-family:Z003;-inkscape-font-specification:Z003;letter-spacing:0px;word-spacing:0px;fill:#e88617;fill-opacity:1;stroke:none;stroke-width:1.22243369"
       id="path2005"
       inkscape:connector-curvature="0" /><path
       d="m 384.44679,83.804451 q -0.24938,0 -0.42541,0.161361 -0.16136,0.17603 -0.16136,0.440076 0,0.249377 0.16136,0.410738 0.17603,0.161361 0.42541,0.161361 h 2.96318 q 0.24937,0 0.41073,-0.17603 0.17603,-0.176031 0.17603,-0.425407 0,-0.249377 -0.17603,-0.410738 -0.16136,-0.161361 -0.41073,-0.161361 z"
       style="font-style:normal;font-variant:normal;font-weight:normal;font-stretch:normal;font-size:18.96134186px;line-height:1.25;font-family:Z003;-inkscape-font-specification:Z003;letter-spacing:0px;word-spacing:0px;fill:#e88617;fill-opacity:1;stroke:none;stroke-width:1.22243369"
       id="path2007"
       inkscape:connector-curvature="0" /><path
       d="m 391.51729,79.829097 q -0.26405,0 -0.44008,0.17603 -0.17603,0.17603 -0.17603,0.425407 v 8.346777 l 0.17603,-0.205369 -1.65762,-1.144197 q -0.14669,-0.102685 -0.33739,-0.102685 -0.24937,0 -0.42541,0.17603 -0.17603,0.1907 -0.17603,0.425407 0,0.322723 0.30805,0.513422 l 2.33241,1.540267 q 0.11736,0.07335 0.23471,0.102685 0.11735,0.02934 0.23471,0.01467 0.26404,0 0.41073,-0.17603 0.16136,-0.161362 0.16136,-0.410739 v -9.080237 q 0,-0.249376 -0.1907,-0.425407 -0.17602,-0.17603 -0.45474,-0.176029 z"
       style="font-style:normal;font-variant:normal;font-weight:normal;font-stretch:normal;font-size:18.96134186px;line-height:1.25;font-family:Z003;-inkscape-font-specification:Z003;letter-spacing:0px;word-spacing:0px;fill:#e88617;fill-opacity:1;stroke:none;stroke-width:1.22243369"
       id="path2009"
       inkscape:connector-curvature="0" /><path
       d="m 399.01325,79.829097 q -0.24938,0 -0.4254,0.17603 -0.16137,0.17603 -0.16137,0.425407 v 8.024055 l 0.23471,-0.08801 -3.50594,-4.576792 -0.0586,0.17603 h 5.48628 q 0.2347,0 0.39607,-0.161361 0.16136,-0.161361 0.16136,-0.396069 0,-0.220038 -0.16136,-0.381399 -0.16137,-0.146692 -0.39607,-0.146692 h -6.2931 q -0.22003,0 -0.41073,0.17603 -0.17603,0.176031 -0.17603,0.410738 0,0.220039 0.14669,0.381399 l 4.67948,6.014374 q 0.10268,0.132024 0.2347,0.176031 0.13202,0.05868 0.26405,0.05868 0.24938,0 0.41073,-0.176031 0.16137,-0.161361 0.16137,-0.410738 v -9.080237 q 0,-0.249377 -0.17603,-0.425407 -0.16136,-0.176031 -0.41074,-0.176031 z"
       style="font-style:normal;font-variant:normal;font-weight:normal;font-stretch:normal;font-size:18.96134186px;line-height:1.25;font-family:Z003;-inkscape-font-specification:Z003;letter-spacing:0px;word-spacing:0px;fill:#e88617;fill-opacity:1;stroke:none;stroke-width:1.22243369"
       id="path2011"
       inkscape:connector-curvature="0" /><path
       d="m 404.14745,79.799758 q 0,-0.425407 -0.24938,-0.836145 -0.23471,-0.425406 -0.60143,-0.689453 -0.36673,-0.278714 -0.74813,-0.278714 -0.13203,0 -0.26405,0.102684 -0.13203,0.08801 -0.13203,0.322723 0,0.249376 0.16137,0.293384 0.16136,0.04401 0.35206,0.132023 0.22004,0.117353 0.33739,0.293384 0.13202,0.161361 0.13202,0.381399 0,0.176031 -0.13202,0.293384 -0.11735,0.102685 -0.29338,0.102685 -0.10268,0 -0.22004,-0.02934 -0.10268,-0.02934 -0.17603,-0.08801 -0.10268,0.07335 -0.17603,0.176031 -0.0733,0.102684 -0.0733,0.264045 0.0147,0.322723 0.32272,0.542761 0.30805,0.234707 0.70412,0.234707 0.46941,0 0.7628,-0.352061 0.29338,-0.352061 0.29338,-0.865483 z"
       style="font-style:normal;font-variant:normal;font-weight:normal;font-stretch:normal;font-size:18.96134186px;line-height:1.25;font-family:Z003;-inkscape-font-specification:Z003;letter-spacing:0px;word-spacing:0px;fill:#e88617;fill-opacity:1;stroke:none;stroke-width:1.22243369"
       id="path2013"
       inkscape:connector-curvature="0" /><path
       d="m 415.69208,80.929286 q 0.23471,0 0.39607,-0.16136 0.16136,-0.161362 0.16136,-0.396069 0,-0.234707 -0.16136,-0.396069 -0.16136,-0.146691 -0.39607,-0.146691 h -5.32491 q -0.26406,0 -0.44008,0.146691 -0.16137,0.161362 -0.16137,0.425407 0,0.234707 0.17604,0.425407 l 3.31523,3.623294 q 0.73347,0.792137 1.10019,1.48159 0.38141,0.704121 0.38141,1.246882 0,0.894822 -0.54276,1.422913 -0.5281,0.542761 -1.42292,0.542761 -0.39607,0 -0.79214,-0.176031 -0.39606,-0.161361 -0.71878,-0.454745 -0.32273,-0.278715 -0.5281,-0.630777 -0.11735,-0.190699 -0.24937,-0.249375 -0.11735,-0.044 -0.24938,-0.044 -0.22004,0 -0.39607,0.146692 -0.17603,0.161361 -0.17603,0.36673 0,0.161361 0.088,0.293384 0.088,0.146692 0.2347,0.322723 0.30806,0.425407 0.7628,0.762798 0.46941,0.352061 1.01217,0.55743 0.55743,0.205369 1.08553,0.205369 0.93883,0 1.62828,-0.36673 0.70412,-0.366731 1.08552,-1.041514 0.3814,-0.674783 0.3814,-1.584274 0,-0.777467 -0.46942,-1.716297 -0.46941,-0.938829 -1.3789,-1.906997 l -2.56711,-2.845825 -0.14669,0.146692 z"
       style="font-style:normal;font-variant:normal;font-weight:normal;font-stretch:normal;font-size:18.96134186px;line-height:1.25;font-family:Z003;-inkscape-font-specification:Z003;letter-spacing:0px;word-spacing:0px;fill:#e88617;fill-opacity:1;stroke:none;stroke-width:1.22243369"
       id="path2015"
       inkscape:connector-curvature="0" /><path
       d="m 421.42772,79.682404 q -1.21754,0 -2.03901,0.689453 -0.80681,0.689452 -1.23222,1.892327 -0.41073,1.202875 -0.41073,2.699134 0,1.525597 0.41073,2.713803 0.42541,1.188205 1.23222,1.877658 0.82147,0.689452 2.03901,0.689452 1.21754,0 2.02435,-0.689452 0.82148,-0.689453 1.23222,-1.877658 0.41074,-1.188206 0.41074,-2.713803 0,-1.496259 -0.41074,-2.699134 -0.41074,-1.202875 -1.23222,-1.892327 -0.80681,-0.689453 -2.02435,-0.689453 z m 0,1.188206 q 0.77747,0 1.30556,0.498753 0.54276,0.498753 0.82148,1.408243 0.27871,0.92416 0.27871,2.185712 0,1.276221 -0.27871,2.185711 -0.27872,0.924161 -0.82148,1.408244 -0.52809,0.498753 -1.30556,0.498753 -0.77747,0 -1.32023,-0.498753 -0.52809,-0.484083 -0.82147,-1.408244 -0.27872,-0.90949 -0.27872,-2.185711 0,-1.261552 0.27872,-2.185712 0.29338,-0.90949 0.82147,-1.408243 0.54276,-0.498753 1.32023,-0.498753 z"
       style="font-style:normal;font-variant:normal;font-weight:normal;font-stretch:normal;font-size:18.96134186px;line-height:1.25;font-family:Z003;-inkscape-font-specification:Z003;letter-spacing:0px;word-spacing:0px;fill:#e88617;fill-opacity:1;stroke:none;stroke-width:1.22243369"
       id="path2017"
       inkscape:connector-curvature="0" /><path
       d="m 432.70833,80.929286 q 0.23471,0 0.39607,-0.16136 0.16136,-0.161362 0.16136,-0.396069 0,-0.234707 -0.16136,-0.396069 -0.16136,-0.146691 -0.39607,-0.146691 h -5.32492 q -0.26405,0 -0.44008,0.146691 -0.16136,0.161362 -0.16136,0.425407 0,0.234707 0.17603,0.425407 l 3.31524,3.623294 q 0.73346,0.792137 1.10019,1.48159 0.3814,0.704121 0.3814,1.246882 0,0.894822 -0.54276,1.422913 -0.52809,0.542761 -1.42291,0.542761 -0.39607,0 -0.79214,-0.176031 -0.39607,-0.161361 -0.71879,-0.454745 -0.32272,-0.278715 -0.52809,-0.630777 -0.11735,-0.190699 -0.24938,-0.249375 -0.11735,-0.044 -0.24937,-0.044 -0.22004,0 -0.39608,0.146692 -0.17602,0.161361 -0.17602,0.36673 0,0.161361 0.088,0.293384 0.088,0.146692 0.23471,0.322723 0.30806,0.425407 0.7628,0.762798 0.46941,0.352061 1.01217,0.55743 0.55743,0.205369 1.08552,0.205369 0.93884,0 1.62829,-0.36673 0.70412,-0.366731 1.08552,-1.041514 0.38139,-0.674783 0.38139,-1.584274 0,-0.777467 -0.46941,-1.716297 -0.46941,-0.938829 -1.37891,-1.906997 l -2.5671,-2.845825 -0.14669,0.146692 z"
       style="font-style:normal;font-variant:normal;font-weight:normal;font-stretch:normal;font-size:18.96134186px;line-height:1.25;font-family:Z003;-inkscape-font-specification:Z003;letter-spacing:0px;word-spacing:0px;fill:#e88617;fill-opacity:1;stroke:none;stroke-width:1.22243369"
       id="path2019"
       inkscape:connector-curvature="0" /><path
       d="m 440.9084,80.929286 q 0.23471,0 0.39606,-0.16136 0.16137,-0.161362 0.16137,-0.396069 0,-0.234707 -0.16137,-0.396069 -0.16135,-0.146691 -0.39606,-0.146691 h -5.32492 q -0.26405,0 -0.44008,0.146691 -0.16136,0.161362 -0.16136,0.425407 0,0.234707 0.17603,0.425407 l 3.31524,3.623294 q 0.73346,0.792137 1.10019,1.48159 0.3814,0.704121 0.3814,1.246882 0,0.894822 -0.54276,1.422913 -0.52809,0.542761 -1.42291,0.542761 -0.39608,0 -0.79214,-0.176031 -0.39607,-0.161361 -0.71879,-0.454745 -0.32273,-0.278715 -0.5281,-0.630777 -0.11735,-0.190699 -0.24937,-0.249375 -0.11735,-0.044 -0.24937,-0.044 -0.22004,0 -0.39608,0.146692 -0.17603,0.161361 -0.17603,0.36673 0,0.161361 0.088,0.293384 0.088,0.146692 0.2347,0.322723 0.30806,0.425407 0.7628,0.762798 0.46942,0.352061 1.01218,0.55743 0.55743,0.205369 1.08552,0.205369 0.93883,0 1.62828,-0.36673 0.70413,-0.366731 1.08552,-1.041514 0.3814,-0.674783 0.3814,-1.584274 0,-0.777467 -0.46942,-1.716297 -0.46941,-0.938829 -1.3789,-1.906997 l -2.56711,-2.845825 -0.14669,0.146692 z"
       style="font-style:normal;font-variant:normal;font-weight:normal;font-stretch:normal;font-size:18.96134186px;line-height:1.25;font-family:Z003;-inkscape-font-specification:Z003;letter-spacing:0px;word-spacing:0px;fill:#e88617;fill-opacity:1;stroke:none;stroke-width:1.22243369"
       id="path2021"
       inkscape:connector-curvature="0" /></g></svg>