<?xml version="1.0" encoding="UTF-8" standalone="no"?>
<!-- Created with Inkscape (http://www.inkscape.org/) -->

<svg
   xmlns:dc="http://purl.org/dc/elements/1.1/"
   xmlns:cc="http://creativecommons.org/ns#"
   xmlns:rdf="http://www.w3.org/1999/02/22-rdf-syntax-ns#"
   xmlns:svg="http://www.w3.org/2000/svg"
   xmlns="http://www.w3.org/2000/svg"
   xmlns:sodipodi="http://sodipodi.sourceforge.net/DTD/sodipodi-0.dtd"
   xmlns:inkscape="http://www.inkscape.org/namespaces/inkscape"
   id="svg3047"
   version="1.1"
   inkscape:version="0.92.5 (2060ec1f9f, 2020-04-08)"
   width="256"
   height="256"
   xml:space="preserve"
   sodipodi:docname="lpc-logo-square-2022-dropshadow.svg"><metadata
     id="metadata3053"><rdf:RDF><cc:Work
         rdf:about=""><dc:format>image/svg+xml</dc:format><dc:type
           rdf:resource="http://purl.org/dc/dcmitype/StillImage" /><dc:title></dc:title></cc:Work></rdf:RDF></metadata><defs
     id="defs3051"><clipPath
       clipPathUnits="userSpaceOnUse"
       id="clipPath3061"><path
         d="M 0,612 H 792 V 0 H 0 Z"
         id="path3063"
         inkscape:connector-curvature="0" /></clipPath><clipPath
       clipPathUnits="userSpaceOnUse"
       id="clipPath3077"><path
         d="m 457.886,465.695 c -11.204,-0.934 -11.094,-17.732 -11.594,-22.832 v 0 c -0.642,-6.613 15.497,-40.864 2.655,-77.538 v 0 c -11.644,-33.287 -18.424,-23.456 -18.053,-18.559 v 0 c 1.178,15.818 -1.027,35.602 -6.404,47.573 v 0 c -1.207,2.665 -2.974,2.103 -2.628,-2.137 v 0 c 0.556,-7.003 3.534,-24.493 -0.244,-56.453 v 0 c -3.455,-29.341 17.262,-31.659 27.856,-17.37 v 0 c 7.829,10.556 22.896,43.772 24.87,80.752 v 0 c 1.83,34.386 -6.573,66.578 -16.094,66.58 v 0 c -0.121,0 -0.242,-0.005 -0.364,-0.016"
         id="path3079"
         inkscape:connector-curvature="0" /></clipPath><linearGradient
       x1="0"
       y1="0"
       x2="1"
       y2="0"
       gradientUnits="userSpaceOnUse"
       gradientTransform="matrix(56.33749,154.78598,-154.78598,56.33749,420.03162,310.34122)"
       spreadMethod="pad"
       id="linearGradient3085"><stop
         style="stop-opacity:1;stop-color:#ffffff"
         offset="0"
         id="stop3087" /><stop
         style="stop-opacity:1;stop-color:#fbbf16"
         offset="1"
         id="stop3089" /></linearGradient><clipPath
       clipPathUnits="userSpaceOnUse"
       id="clipPath3097"><path
         d="m 457.886,465.695 c -11.204,-0.934 -11.094,-17.732 -11.594,-22.832 -0.642,-6.613 15.497,-40.864 2.655,-77.538 -11.644,-33.287 -18.424,-23.456 -18.053,-18.559 1.178,15.818 -1.027,35.602 -6.404,47.573 -1.207,2.665 -2.974,2.103 -2.628,-2.137 0.556,-7.003 3.534,-24.493 -0.244,-56.453 -3.455,-29.341 17.262,-31.659 27.856,-17.37 7.829,10.556 22.896,43.772 24.87,80.752 1.83,34.386 -6.573,66.578 -16.094,66.58 -0.121,0 -0.242,-0.005 -0.364,-0.016"
         id="path3099"
         inkscape:connector-curvature="0" /></clipPath><clipPath
       clipPathUnits="userSpaceOnUse"
       id="clipPath3105"><path
         d="m 326.447,262.123 h 7.61 v -21.301 h -7.61 z"
         id="path3107"
         inkscape:connector-curvature="0" /></clipPath><clipPath
       clipPathUnits="userSpaceOnUse"
       id="clipPath3113"><path
         d="m 326.447,262.123 h 7.61 v -21.301 h -7.61 z"
         id="path3115"
         inkscape:connector-curvature="0" /></clipPath><linearGradient
       x1="0"
       y1="0"
       x2="1"
       y2="0"
       gradientUnits="userSpaceOnUse"
       gradientTransform="matrix(0,20.432739,-20.432739,0,330.25217,241.59052)"
       spreadMethod="pad"
       id="linearGradient3121"><stop
         style="stop-opacity:1;stop-color:#ffffff"
         offset="0"
         id="stop3123" /><stop
         style="stop-opacity:1;stop-color:#fbbf16"
         offset="1"
         id="stop3125" /></linearGradient><clipPath
       clipPathUnits="userSpaceOnUse"
       id="clipPath3133"><path
         d="M 0,612 H 792 V 0 H 0 Z"
         id="path3135"
         inkscape:connector-curvature="0" /></clipPath><filter
       style="color-interpolation-filters:sRGB"
       inkscape:label="Drop Shadow"
       id="filter1072"><feFlood
         flood-opacity="0.392157"
         flood-color="rgb(0,0,0)"
         result="flood"
         id="feFlood1062" /><feComposite
         in="flood"
         in2="SourceGraphic"
         operator="in"
         result="composite1"
         id="feComposite1064" /><feGaussianBlur
         in="composite1"
         stdDeviation="6"
         result="blur"
         id="feGaussianBlur1066" /><feOffset
         dx="10"
         dy="-10"
         result="offset"
         id="feOffset1068" /><feComposite
         in="SourceGraphic"
         in2="offset"
         operator="over"
         result="composite2"
         id="feComposite1070" /></filter><filter
       style="color-interpolation-filters:sRGB"
       inkscape:label="Drop Shadow"
       id="filter1206"><feFlood
         flood-opacity="0.392157"
         flood-color="rgb(0,0,0)"
         result="flood"
         id="feFlood1196" /><feComposite
         in="flood"
         in2="SourceGraphic"
         operator="in"
         result="composite1"
         id="feComposite1198" /><feGaussianBlur
         in="composite1"
         stdDeviation="10"
         result="blur"
         id="feGaussianBlur1200" /><feOffset
         dx="10"
         dy="-10"
         result="offset"
         id="feOffset1202" /><feComposite
         in="SourceGraphic"
         in2="offset"
         operator="over"
         result="composite2"
         id="feComposite1204" /></filter></defs><sodipodi:namedview
     pagecolor="#ffffff"
     bordercolor="#666666"
     borderopacity="1"
     objecttolerance="10"
     gridtolerance="10"
     guidetolerance="10"
     inkscape:pageopacity="0"
     inkscape:pageshadow="2"
     inkscape:window-width="3440"
     inkscape:window-height="1376"
     id="namedview3049"
     showgrid="false"
     fit-margin-top="0"
     fit-margin-left="0"
     fit-margin-right="0"
     fit-margin-bottom="0"
     inkscape:zoom="1.7968627"
     inkscape:cx="282.94606"
     inkscape:cy="30.707249"
     inkscape:window-x="0"
     inkscape:window-y="27"
     inkscape:window-maximized="1"
     inkscape:current-layer="g3055" /><g
     id="g3055"
     inkscape:groupmode="layer"
     inkscape:label="logo_lpc_square"
     transform="matrix(1.25,0,0,-1.25,-153.91454,303.985)"><rect
       style="opacity:1;fill:#ffffff;fill-opacity:0.24091779;stroke:none;stroke-width:4.6602726;stroke-linecap:round;stroke-linejoin:round;stroke-miterlimit:4;stroke-dasharray:none;stroke-dashoffset:0;stroke-opacity:1"
       id="rect870"
       width="124.8848"
       height="125.08516"
       x="163.08923"
       y="-197.43124"
       transform="scale(1,-1)" /><path
       inkscape:connector-curvature="0"
       id="path3067"
       style="fill:#001a0d;fill-opacity:1;fill-rule:nonzero;stroke:none;filter:url(#filter1206)"
       d="m 473.3438,473.8042 c -2.645,7.229 -4.082,12.716 -2.131,19.147 5.484,18.03 25.331,17.112 27.158,16.39 1.818,-0.726 4.873,-0.46 1.998,2.37 -2.88,2.807 -11.275,3.413 -16.943,2.955 -5.68,-0.511 -19.932,7.069 -28.656,6.315 -17.883,-1.511 -26.096,-18.491 -30.091,-23.216 -3.038,-3.614 -9.762,-9.136 -16.403,-23.961 h -174.353 v -324.625 h 324.105 v 324.639 z m -69.303,-165.44 c 0.67,-2.829 3.602,-8.749 -4.246,-8.749 h -16.633 c -7.373,0 -13.341,-5.984 -13.341,-13.359 v -0.84 h -1.674 c -14.746,0 -20.005,11.638 -20.005,22.523 v 1.679 h 0.823 c 7.381,0 13.354,5.946 13.354,13.349 v 18.345 c 0,7.359 -5.973,13.343 -13.354,13.343 h -0.823 v 105.817 h 55.159 c -0.357,-1.117 -0.73,-2.084 -1.082,-3.292 -22.396,-76.669 -0.93,-137.177 1.822,-148.816 m 140.643,-144.28 h -297.425 v 296.388 h 47.522 v -105.817 h -0.839 c -7.369,0 -13.332,-5.984 -13.332,-13.343 v -18.345 c 0,-7.403 5.963,-13.349 13.332,-13.349 h 0.839 v -1.679 c 0,-43.265 31.542,-75.892 73.366,-75.892 h 1.674 v -0.805 c 0,-7.375 5.968,-13.34 13.341,-13.34 h 18.35 c 7.375,0 13.346,5.965 13.346,13.34 v 0.805 h 57.834 v -4.981 c 0,-0.859 0.417,-1.68 1.125,-2.178 0.707,-0.502 1.609,-0.623 2.437,-0.343 l 14.178,5.019 c 1.058,0.377 1.779,1.371 1.779,2.496 v 55.034 c 0,1.177 -0.791,2.242 -1.924,2.56 l -2.612,0.766 c -0.587,0.806 -1.517,1.711 -3.362,2.904 -16.731,10.867 -16.684,-0.117 -22.196,2.893 -16.929,9.318 26.08,33.881 25.332,104.56 -0.329,29.098 -4.883,47.024 -9.198,59.695 l 66.433,0.014 z"
       transform="matrix(0.38532201,0,0,0.38532201,72.953631,14.864053)" /><path
       inkscape:connector-curvature="0"
       id="path3067-3"
       style="fill:#ffffff;fill-opacity:1;fill-rule:nonzero;stroke:none;stroke-width:1;filter:url(#filter1072)"
       d="M 473.3438,473.8042 H 408.2758 233.92279 V 149.1792 H 558.0278 v 324.639 z m 71.34,-309.72 H 247.25879 v 296.388 l 297.42501,0.014 z"
       sodipodi:nodetypes="cccccccccccc"
       transform="matrix(0.38532201,0,0,0.38532201,72.953631,14.864053)" /><path
       inkscape:connector-curvature="0"
       id="path3067-6"
       style="fill:#001a0d;fill-opacity:1;fill-rule:nonzero;stroke:none;stroke-width:0.385322"
       d="m 254.52229,204.809 c 2.11311,6.94736 9.7606,6.59363 10.46458,6.31543 0.70051,-0.27975 1.87767,-0.17725 0.76987,0.91321 -1.10972,1.0816 -4.3445,1.31511 -6.52851,1.13863 -2.18863,-0.1969 -7.68024,2.72384 -11.04179,2.43331 -6.89071,-0.58223 -10.05536,-7.12499 -11.59472,-8.94564 -1.17061,-1.39255 -3.76151,-3.5203 -6.32044,-9.2327 -1.32949,-2.73553 -6.08469,-17.50443 -4.19217,-17.92714 2.19119,-0.48942 16.85306,9.7145 19.72519,10.62956 2.30478,0.73431 1.26752,-0.0131 3.28812,1.31769 1.15008,0.75743 8.57239,-0.57917 8.10838,0.81303 -2.01142,6.03507 -3.28475,10.98175 -2.67851,12.54462 z"
       sodipodi:nodetypes="cccccccssssc" /><path
       inkscape:connector-curvature="0"
       id="path3071"
       style="fill:#ffffff;fill-opacity:1;fill-rule:nonzero;stroke:none;stroke-width:0.385322"
       d="m 193.28962,190.70991 c -1.06734,0 -1.93355,-0.85927 -1.93355,-1.92622 v -34.05977 c 0,-1.06157 0.86621,-1.92237 1.93355,-1.92237 1.06002,0 1.92777,0.8608 1.92777,1.92237 v 34.05977 c 0,1.06695 -0.86775,1.92622 -1.92777,1.92622 m -1.93355,-42.73144 c -2.1262,0 -3.85052,-1.72894 -3.85052,-3.8563 v -2.57126 c 0,-2.12119 1.72432,-3.8509 3.85052,-3.8509 2.13315,0 3.86132,1.72971 3.86132,3.8509 v 2.57126 c 0,2.12736 -1.72817,3.8563 -3.86132,3.8563 m 21.20697,-28.26607 h -1.28158 c -1.06349,0 -1.92777,-0.8635 -1.92777,-1.93354 0,-1.06503 0.86428,-1.93124 1.92777,-1.93124 h 1.28158 c 1.06426,0 1.92931,0.86621 1.92931,1.93124 0,1.07004 -0.86505,1.93354 -1.92931,1.93354 m 12.85396,3.85014 h -2.57126 c -2.13275,0 -3.85861,-1.72432 -3.85861,-3.85014 0,-2.13006 1.72586,-3.86478 3.85861,-3.86478 h 2.57126 c 2.12659,0 3.85669,1.73472 3.85669,3.86478 0,2.12582 -1.7301,3.85014 -3.85669,3.85014 m 27.65148,-3.85014 h -17.20733 c -1.06927,0 -1.93316,-0.8635 -1.93316,-1.93354 0,-1.06503 0.86389,-1.93124 1.93316,-1.93124 h 17.20733 c 1.06503,0 1.92815,0.86621 1.92815,1.93124 0,1.07004 -0.86312,1.93354 -1.92815,1.93354 m -59.77886,13.17493 c -1.06734,0 -1.93355,-0.87121 -1.93355,-1.93971 v -1.28158 c 0,-1.06272 0.86621,-1.93046 1.93355,-1.93046 1.06002,0 1.92777,0.86774 1.92777,1.93046 v 1.28158 c 0,1.0685 -0.86775,1.93971 -1.92777,1.93971" /><path
       inkscape:connector-curvature="0"
       id="path3139"
       style="fill:#ffffff;fill-opacity:1;fill-rule:nonzero;stroke:none;stroke-width:0.385322"
       d="m 244.73273,200.42088 c 0.60072,-0.25354 0.18495,0.40574 0.005,1.58406 -0.34563,2.31655 3.45673,1.4307 5.59295,1.11474 0.57221,-0.1025 1.24806,0.19882 1.25847,0.51055 0.0709,1.66497 0.59146,2.27609 -0.88586,1.94472 -2.14509,-0.46894 -3.02208,-0.40382 -2.60131,1.39332 0.23659,0.94019 0.55718,3.83819 -1.27079,2.94656 -1.81872,-0.89472 -5.70893,-1.36751 -5.16177,-4.37841 0.54908,-3.01399 2.45334,-4.88704 3.06292,-5.11554" /><path
       d="m 249.38718,194.30659 c -4.31714,-0.35989 -4.27476,-6.83253 -4.46742,-8.79768 v 0 c -0.24738,-2.54813 5.97134,-15.74579 1.02303,-29.87709 v 0 c -4.48669,-12.82622 -7.09917,-9.03812 -6.95622,-7.15119 v 0 c 0.45391,6.09502 -0.39572,13.71823 -2.4676,18.33092 v 0 c -0.46508,1.02688 -1.14595,0.81033 -1.01263,-0.82343 v 0 c 0.21424,-2.69841 1.36173,-9.4377 -0.094,-21.75259 v 0 c -1.33129,-11.30573 6.65142,-12.19891 10.73353,-6.69304 v 0 c 3.01668,4.06746 8.82233,16.86631 9.58295,31.11552 v 0 c 0.70514,13.24968 -2.53272,25.65397 -6.20137,25.65474 v 0 c -0.0466,0 -0.0933,-0.002 -0.14026,-0.006"
       style="fill:#ffffff;fill-opacity:1;stroke:none;stroke-width:0.385322"
       id="path3091"
       inkscape:connector-curvature="0" /></g></svg>